<svg xmlns="http://www.w3.org/2000/svg" xmlns:xlink="http://www.w3.org/1999/xlink" width="108" height="108" viewBox="0 0 108 108">
  <defs>
    <filter id="Trazado_982547" x="0" y="0" width="108" height="108" filterUnits="userSpaceOnUse">
      <feOffset dy="3" input="SourceAlpha"/>
      <feGaussianBlur stdDeviation="3" result="blur"/>
      <feFlood flood-opacity="0.161"/>
      <feComposite operator="in" in2="blur"/>
      <feComposite in="SourceGraphic"/>
    </filter>
  </defs>
  <g id="Grupo_1154521" data-name="Grupo 1154521" transform="translate(-192 -925)">
    <g id="Grupo_1154014" data-name="Grupo 1154014" transform="translate(201 931)">
      <g id="Grupo_1153134" data-name="Grupo 1153134">
        <g id="Grupo_1149598" data-name="Grupo 1149598">
          <g id="Grupo_1148770" data-name="Grupo 1148770">
            <g id="Grupo_1146954" data-name="Grupo 1146954">
              <g transform="matrix(1, 0, 0, 1, -9, -6)" filter="url(#Trazado_982547)">
                <g id="Trazado_982547-2" data-name="Trazado 982547" transform="translate(9 6)" fill="#f5fdfa">
                  <path d="M 45 88.5 C 39.12687683105469 88.5 33.43022537231445 87.35007476806641 28.06830024719238 85.08217620849609 C 22.88852500915527 82.89131164550781 18.23629951477051 79.75458526611328 14.2408504486084 75.75914764404297 C 10.24541282653809 71.76370239257812 7.108687400817871 67.11147308349609 4.917825222015381 61.93170166015625 C 2.649924993515015 56.56977462768555 1.5 50.87312316894531 1.5 45 C 1.5 39.12687683105469 2.649924993515015 33.43022537231445 4.917825222015381 28.06830024719238 C 7.108687400817871 22.88852500915527 10.24541282653809 18.23629951477051 14.2408504486084 14.2408504486084 C 18.23629951477051 10.24541282653809 22.88852500915527 7.108687400817871 28.06830024719238 4.917825222015381 C 33.43022537231445 2.649924993515015 39.12687683105469 1.5 45 1.5 C 50.87312316894531 1.5 56.56977462768555 2.649924993515015 61.93170166015625 4.917825222015381 C 67.11147308349609 7.108687400817871 71.76370239257812 10.24541282653809 75.75914764404297 14.2408504486084 C 79.75458526611328 18.23629951477051 82.89131164550781 22.88852500915527 85.08217620849609 28.06830024719238 C 87.35007476806641 33.43022537231445 88.5 39.12687683105469 88.5 45 C 88.5 50.87312316894531 87.35007476806641 56.56977462768555 85.08217620849609 61.93170166015625 C 82.89131164550781 67.11147308349609 79.75458526611328 71.76370239257812 75.75914764404297 75.75914764404297 C 71.76370239257812 79.75458526611328 67.11147308349609 82.89131164550781 61.93170166015625 85.08217620849609 C 56.56977462768555 87.35007476806641 50.87312316894531 88.5 45 88.5 Z" stroke="none"/>
                  <path d="M 45 3 C 39.32871246337891 3 33.82865524291992 4.110054016113281 28.65262985229492 6.299339294433594 C 23.65165710449219 8.414573669433594 19.15968322753906 11.44334411621094 15.301513671875 15.301513671875 C 11.44334411621094 19.15968322753906 8.414573669433594 23.65165710449219 6.299339294433594 28.65262985229492 C 4.110054016113281 33.82865524291992 3 39.32871246337891 3 45 C 3 50.67128753662109 4.110054016113281 56.17134475708008 6.299339294433594 61.34737396240234 C 8.414573669433594 66.34834289550781 11.44334411621094 70.84031677246094 15.301513671875 74.698486328125 C 19.15968322753906 78.55665588378906 23.65165710449219 81.58542633056641 28.65262985229492 83.70066070556641 C 33.82865524291992 85.88994598388672 39.32871246337891 87 45 87 C 50.67128753662109 87 56.17134475708008 85.88994598388672 61.34737396240234 83.70066070556641 C 66.34834289550781 81.58542633056641 70.84031677246094 78.55665588378906 74.698486328125 74.698486328125 C 78.55665588378906 70.84031677246094 81.58542633056641 66.34834289550781 83.70066070556641 61.34737396240234 C 85.88994598388672 56.17134475708008 87 50.67128753662109 87 45 C 87 39.32871246337891 85.88994598388672 33.82865524291992 83.70066070556641 28.65262985229492 C 81.58542633056641 23.65165710449219 78.55665588378906 19.15968322753906 74.698486328125 15.301513671875 C 70.84031677246094 11.44334411621094 66.34834289550781 8.414573669433594 61.34737396240234 6.299339294433594 C 56.17134475708008 4.110054016113281 50.67128753662109 3 45 3 M 45 0 C 69.85281372070312 0 90 20.14718627929688 90 45 C 90 69.85281372070312 69.85281372070312 90 45 90 C 20.14718627929688 90 0 69.85281372070312 0 45 C 0 20.14718627929688 20.14718627929688 0 45 0 Z" stroke="none" fill="#598475"/>
                </g>
              </g>
            </g>
          </g>
        </g>
      </g>
    </g>
    <g id="economico_1_" data-name="economico (1)" transform="translate(202 932)">
      <path id="Trazado_988203" data-name="Trazado 988203" d="M91.621,45.8A21.81,21.81,0,0,1,48,45.8q0-.958.082-1.9a21.811,21.811,0,0,1,43.539,1.9Z" transform="translate(-28.207 -7.037)" fill="#9ce6ed"/>
      <path id="Trazado_988204" data-name="Trazado 988204" d="M246.759,86.622A21.8,21.8,0,0,1,236.4,105.189l-4.81-5.291V92.312h-3.793L224,86.622l3.793-2.845h4.741l2.845-3.793-1.9-4.741,5.933-4.943A21.759,21.759,0,0,1,246.759,86.622Z" transform="translate(-183.345 -47.864)" fill="#02c26a"/>
      <rect id="Rectángulo_409752" data-name="Rectángulo 409752" width="7.057" height="8.821" transform="translate(49.52 61.87)" fill="#4367e0"/>
      <rect id="Rectángulo_409753" data-name="Rectángulo 409753" width="7.939" height="16.76" transform="translate(56.577 53.931)" fill="#4976f2"/>
      <rect id="Rectángulo_409754" data-name="Rectángulo 409754" width="7.057" height="26.463" transform="translate(64.516 44.228)" fill="#548aff"/>
      <path id="Trazado_988205" data-name="Trazado 988205" d="M116.353,25.774,109.6,32.526v5.69l-5.69,3.793-3.793-3.793H95.377V34.422L90.99,31.79a21.829,21.829,0,0,1,25.363-6.016Z" transform="translate(-66.101 -7.043)" fill="#02c26a"/>
      <path id="Trazado_988206" data-name="Trazado 988206" d="M66.965,200.534l-3.793,2.845v11.3A21.819,21.819,0,0,1,48,193.9q0-.958.082-1.9H53.69l2.845,3.793h7.586Z" transform="translate(-28.207 -155.138)" fill="#02c26a"/>
      <path id="Trazado_988207" data-name="Trazado 988207" d="M33.483,257.9c0-1.047-2.123-1.9-4.741-1.9S24,256.849,24,257.9V281.6c0,1.047,2.123,1.9,4.741,1.9s4.741-.849,4.741-1.9Z" transform="translate(-7.052 -211.552)" fill="#ffc431"/>
      <ellipse id="Elipse_11789" data-name="Elipse 11789" cx="4.852" cy="2.205" rx="4.852" ry="2.205" transform="translate(16.882 44.228)" fill="#ffd873"/>
      <path id="Trazado_988208" data-name="Trazado 988208" d="M113.483,337.9c0-1.047-2.123-1.9-4.741-1.9s-4.741.849-4.741,1.9v14.224c0,1.047,2.123,1.9,4.741,1.9s4.741-.849,4.741-1.9Z" transform="translate(-77.569 -282.069)" fill="#ffc431"/>
      <ellipse id="Elipse_11790" data-name="Elipse 11790" cx="4.852" cy="1.764" rx="4.852" ry="1.764" transform="translate(26.585 53.931)" fill="#ffd873"/>
      <path id="Trazado_988209" data-name="Trazado 988209" d="M193.483,377.9c0-1.047-2.123-1.9-4.741-1.9s-4.741.849-4.741,1.9v9.483c0,1.047,2.123,1.9,4.741,1.9s4.741-.849,4.741-1.9Z" transform="translate(-148.086 -317.328)" fill="#ffc431"/>
      <ellipse id="Elipse_11791" data-name="Elipse 11791" cx="4.411" cy="2.205" rx="4.411" ry="2.205" transform="translate(36.289 58.341)" fill="#ffd873"/>
      <path id="Trazado_988210" data-name="Trazado 988210" d="M71.948,248H64.362a.948.948,0,0,0-.948.948v8.534H56.776a.948.948,0,0,0-.948.948v6.638H49.19a.948.948,0,0,0-.948.948v8.534h-1.9v-9.483c0-.533-.258-1.531-1.985-2.221a11.322,11.322,0,0,0-7.41,0l-.088.037v-2.557c0-.533-.258-1.531-1.985-2.221a10.289,10.289,0,0,0-3.7-.623,10.289,10.289,0,0,0-3.7.623l-.088.037v-7.3c0-.533-.258-1.531-1.985-2.221a10.289,10.289,0,0,0-3.7-.623,10.29,10.29,0,0,0-3.7.623c-1.727.691-1.985,1.688-1.985,2.221v23.707c0,.533.258,1.531,1.985,2.221a10.289,10.289,0,0,0,3.7.623,10.29,10.29,0,0,0,3.7-.623,4.57,4.57,0,0,0,1.037-.562,4.57,4.57,0,0,0,1.037.562,10.289,10.289,0,0,0,3.7.623,10.29,10.29,0,0,0,3.7-.623,4.569,4.569,0,0,0,1.037-.562,4.57,4.57,0,0,0,1.037.562,11.321,11.321,0,0,0,7.41,0,5.162,5.162,0,0,0,.674-.325H71.948a.948.948,0,0,0,.948-.948V248.948A.948.948,0,0,0,71.948,248ZM17.9,267.254l.088.037a10.289,10.289,0,0,0,3.7.623,10.289,10.289,0,0,0,3.7-.623l.088-.037v2.521c-.165.294-1.477.984-3.793.984s-3.628-.691-3.793-.984Zm0-4.741.088.037a10.289,10.289,0,0,0,3.7.623,10.29,10.29,0,0,0,3.7-.623l.088-.037v2.521c-.165.294-1.477.984-3.793.984s-3.628-.691-3.793-.984Zm0-4.741.088.037a10.289,10.289,0,0,0,3.7.623,10.29,10.29,0,0,0,3.7-.623l.088-.037v2.521c-.165.294-1.477.984-3.793.984s-3.628-.691-3.793-.984Zm0-4.741.088.037a10.289,10.289,0,0,0,3.7.623,10.29,10.29,0,0,0,3.7-.623l.088-.037v2.521c-.165.294-1.477.984-3.793.984s-3.628-.691-3.793-.984Zm13.276,12.988c-2.316,0-3.628-.691-3.793-.984v-2.521l.088.037a10.288,10.288,0,0,0,3.7.623,10.29,10.29,0,0,0,3.7-.623l.088-.037v2.521C34.8,265.327,33.489,266.017,31.172,266.017Zm-3.793,1.236.088.037a10.289,10.289,0,0,0,3.7.623,10.289,10.289,0,0,0,3.7-.623l.088-.037v2.521c-.165.294-1.477.984-3.793.984s-3.628-.691-3.793-.984Zm9.483,0,.088.037a11.321,11.321,0,0,0,7.41,0l.088-.037v2.521c-.165.294-1.477.984-3.793.984s-3.628-.691-3.793-.984Zm3.793-3.133c2.231,0,3.528.64,3.768.95-.247.311-1.545.947-3.768.947s-3.521-.636-3.768-.947C37.127,264.761,38.424,264.121,40.655,264.121Zm-9.483-4.741c2.231,0,3.528.64,3.768.95-.247.311-1.545.947-3.768.947s-3.525-.638-3.769-.948C27.647,260.017,28.946,259.379,31.172,259.379ZM21.69,249.9c2.231,0,3.528.64,3.768.95-.247.311-1.545.947-3.768.947s-3.521-.636-3.768-.947C18.161,250.537,19.458,249.9,21.69,249.9Zm0,25.6c-2.312,0-3.625-.688-3.793-.983v-2.522l.088.037a10.288,10.288,0,0,0,3.7.623,10.289,10.289,0,0,0,3.7-.623l.088-.037v2.522C25.314,274.811,24,275.5,21.69,275.5Zm9.483,0c-2.316,0-3.628-.691-3.793-.984v-2.521l.088.037a10.288,10.288,0,0,0,3.7.623,10.289,10.289,0,0,0,3.7-.623l.088-.037v2.522C34.8,274.811,33.485,275.5,31.172,275.5Zm9.483,0c-2.312,0-3.625-.688-3.793-.983v-2.522l.088.037a11.321,11.321,0,0,0,7.41,0l.088-.037v2.522C44.28,274.811,42.967,275.5,40.655,275.5Zm9.483-8.534h5.69v7.586h-5.69Zm7.586-7.586h5.69v15.172h-5.69Zm7.586,15.172V249.9H71v24.655Z" transform="translate(0 -204.5)"/>
      <rect id="Rectángulo_409755" data-name="Rectángulo 409755" width="1.764" height="1.764" transform="translate(40.699 53.931)"/>
      <path id="Trazado_988211" data-name="Trazado 988211" d="M256,180.862v1.9h4.741a.948.948,0,0,0,.671-.278l19.243-19.243v1.5h1.9v-3.793A.948.948,0,0,0,281.6,160H277.81v1.9h1.5l-18.965,18.965Z" transform="translate(-211.552 -126.931)"/>
      <path id="Trazado_988212" data-name="Trazado 988212" d="M78.183,22.024A22.759,22.759,0,0,0,40,38.758a23.051,23.051,0,0,0,.192,2.967l1.881-.245a21.149,21.149,0,0,1-.176-2.722c0-.318.008-.634.022-.948h4.245l2.56,3.414a.948.948,0,0,0,.759.379h7.049l2.129,3.548-3.109,2.332a.948.948,0,0,0-.379.759v2.845h1.9V48.715l3.414-2.56a.948.948,0,0,0,.244-1.247l-2.845-4.741a.948.948,0,0,0-.813-.46H49.957L47.4,36.293a.948.948,0,0,0-.759-.379H42.091a20.763,20.763,0,0,1,4.181-9.924l3.21,1.926v3.256a.948.948,0,0,0,.948.948H54.78l3.515,3.515a.948.948,0,0,0,1.2.118l5.69-3.793a.948.948,0,0,0,.422-.789v-5.3l6.011-6.011a20.814,20.814,0,0,1,4.134,2.568l-5.062,4.218a.948.948,0,0,0-.273,1.081l1.7,4.247-2.241,2.987H65.6a.949.949,0,0,0-.569.19L61.241,38a.948.948,0,0,0-.22,1.285l3.793,5.69a.948.948,0,0,0,.789.422h2.845v5.69h1.9V44.448A.948.948,0,0,0,69.4,43.5H66.111L63.1,38.979l2.823-2.117h4.425a.948.948,0,0,0,.759-.379l2.845-3.793a.948.948,0,0,0,.122-.921l-1.641-4.1,4.763-3.97a20.785,20.785,0,0,1,6.35,13.246l1.89-.163A22.684,22.684,0,0,0,78.183,22.024Zm-14.2,2.788a.948.948,0,0,0-.278.671v5.182l-4.621,3.08L55.843,30.5a.948.948,0,0,0-.671-.278H51.379V27.379a.948.948,0,0,0-.46-.813l-3.4-2.039a20.853,20.853,0,0,1,22.191-5.441Z" transform="translate(-21.155)"/>
    </g>
  </g>
</svg>
