<svg xmlns="http://www.w3.org/2000/svg" xmlns:xlink="http://www.w3.org/1999/xlink" width="108" height="108" viewBox="0 0 108 108">
  <defs>
    <filter id="Trazado_982547" x="0" y="0" width="108" height="108" filterUnits="userSpaceOnUse">
      <feOffset dy="3" input="SourceAlpha"/>
      <feGaussianBlur stdDeviation="3" result="blur"/>
      <feFlood flood-opacity="0.161"/>
      <feComposite operator="in" in2="blur"/>
      <feComposite in="SourceGraphic"/>
    </filter>
  </defs>
  <g id="Grupo_1155790" data-name="Grupo 1155790" transform="translate(-196 -6112)">
    <g id="Grupo_1154064" data-name="Grupo 1154064" transform="translate(-420 2202)">
      <g id="Grupo_1153177" data-name="Grupo 1153177" transform="translate(362 3397)">
        <g id="Grupo_1149598" data-name="Grupo 1149598" transform="translate(80 315)">
          <g id="Grupo_1148770" data-name="Grupo 1148770" transform="translate(-27 -2583)">
            <g id="Grupo_1146954" data-name="Grupo 1146954" transform="translate(-415 -1202)">
              <g transform="matrix(1, 0, 0, 1, 616, 3983)" filter="url(#Trazado_982547)">
                <g id="Trazado_982547-2" data-name="Trazado 982547" transform="translate(9 6)" fill="#fdf4ee">
                  <path d="M 45 88.5 C 39.12687683105469 88.5 33.43022537231445 87.35007476806641 28.06830024719238 85.08217620849609 C 22.88852500915527 82.89131164550781 18.23629951477051 79.75458526611328 14.2408504486084 75.75914764404297 C 10.24541282653809 71.76370239257812 7.108687400817871 67.11147308349609 4.917825222015381 61.93170166015625 C 2.649924993515015 56.56977462768555 1.5 50.87312316894531 1.5 45 C 1.5 39.12687683105469 2.649924993515015 33.43022537231445 4.917825222015381 28.06830024719238 C 7.108687400817871 22.88852500915527 10.24541282653809 18.23629951477051 14.2408504486084 14.2408504486084 C 18.23629951477051 10.24541282653809 22.88852500915527 7.108687400817871 28.06830024719238 4.917825222015381 C 33.43022537231445 2.649924993515015 39.12687683105469 1.5 45 1.5 C 50.87312316894531 1.5 56.56977462768555 2.649924993515015 61.93170166015625 4.917825222015381 C 67.11147308349609 7.108687400817871 71.76370239257812 10.24541282653809 75.75914764404297 14.2408504486084 C 79.75458526611328 18.23629951477051 82.89131164550781 22.88852500915527 85.08217620849609 28.06830024719238 C 87.35007476806641 33.43022537231445 88.5 39.12687683105469 88.5 45 C 88.5 50.87312316894531 87.35007476806641 56.56977462768555 85.08217620849609 61.93170166015625 C 82.89131164550781 67.11147308349609 79.75458526611328 71.76370239257812 75.75914764404297 75.75914764404297 C 71.76370239257812 79.75458526611328 67.11147308349609 82.89131164550781 61.93170166015625 85.08217620849609 C 56.56977462768555 87.35007476806641 50.87312316894531 88.5 45 88.5 Z" stroke="none"/>
                  <path d="M 45 3 C 39.32871246337891 3 33.82865524291992 4.110054016113281 28.65262985229492 6.299339294433594 C 23.65165710449219 8.414573669433594 19.15968322753906 11.44334411621094 15.301513671875 15.301513671875 C 11.44334411621094 19.15968322753906 8.414573669433594 23.65165710449219 6.299339294433594 28.65262985229492 C 4.110054016113281 33.82865524291992 3 39.32871246337891 3 45 C 3 50.67128753662109 4.110054016113281 56.17134475708008 6.299339294433594 61.34737396240234 C 8.414573669433594 66.34834289550781 11.44334411621094 70.84031677246094 15.301513671875 74.698486328125 C 19.15968322753906 78.55665588378906 23.65165710449219 81.58542633056641 28.65262985229492 83.70066070556641 C 33.82865524291992 85.88994598388672 39.32871246337891 87 45 87 C 50.67128753662109 87 56.17134475708008 85.88994598388672 61.34737396240234 83.70066070556641 C 66.34834289550781 81.58542633056641 70.84031677246094 78.55665588378906 74.698486328125 74.698486328125 C 78.55665588378906 70.84031677246094 81.58542633056641 66.34834289550781 83.70066070556641 61.34737396240234 C 85.88994598388672 56.17134475708008 87 50.67128753662109 87 45 C 87 39.32871246337891 85.88994598388672 33.82865524291992 83.70066070556641 28.65262985229492 C 81.58542633056641 23.65165710449219 78.55665588378906 19.15968322753906 74.698486328125 15.301513671875 C 70.84031677246094 11.44334411621094 66.34834289550781 8.414573669433594 61.34737396240234 6.299339294433594 C 56.17134475708008 4.110054016113281 50.67128753662109 3 45 3 M 45 0 C 69.85281372070312 0 90 20.14718627929688 90 45 C 90 69.85281372070312 69.85281372070312 90 45 90 C 20.14718627929688 90 0 69.85281372070312 0 45 C 0 20.14718627929688 20.14718627929688 0 45 0 Z" stroke="none" fill="#ee9865"/>
                </g>
              </g>
            </g>
          </g>
        </g>
      </g>
    </g>
    <g id="economia-circular" transform="translate(221 6134)">
      <g id="Grupo_1155788" data-name="Grupo 1155788" transform="translate(0.859 0.859)">
        <path id="Trazado_989298" data-name="Trazado 989298" d="M196.917,260.437l-7.228-5.615a1.978,1.978,0,0,1,0-2.415l7.228-5.615a14.807,14.807,0,0,0,14.808-14.808l5.615-3.1a1.981,1.981,0,0,0,2.415,0l5.615,3.1A28.453,28.453,0,0,1,196.917,260.437Z" transform="translate(-168.464 -203.532)" fill="#fe5694"/>
        <path id="Trazado_989299" data-name="Trazado 989299" d="M35.952,7.5l7.228,5.615a1.978,1.978,0,0,1,0,2.415l-7.228,5.615A14.807,14.807,0,0,0,21.145,35.952l-5.615,3.1a1.981,1.981,0,0,0-2.415,0L7.5,35.952A28.453,28.453,0,0,1,35.952,7.5Z" transform="translate(-7.5 -7.5)" fill="#0ed2b3"/>
        <path id="Trazado_989300" data-name="Trazado 989300" d="M284.453,35.95l-5.615,4.323a1.978,1.978,0,0,1-2.415,0l-5.615-4.323A14.807,14.807,0,0,0,256,21.143l4.323-5.615a1.981,1.981,0,0,0,0-2.415L256,7.5A28.453,28.453,0,0,1,284.453,35.95Z" transform="translate(-227.548 -7.498)" fill="#60b7ff"/>
        <path id="Trazado_989301" data-name="Trazado 989301" d="M7.5,219.382l5.615-4.323a1.978,1.978,0,0,1,2.415,0l5.615,4.323A14.807,14.807,0,0,0,35.953,234.19L31.63,239.8a1.981,1.981,0,0,0,0,2.415l4.323,5.615A28.453,28.453,0,0,1,7.5,219.382Z" transform="translate(-7.501 -190.929)" fill="#fee45a"/>
        <path id="Trazado_989302" data-name="Trazado 989302" d="M291.326,258.984a14.815,14.815,0,0,1-14.507,11.823,14.975,14.975,0,0,1-2.139-.153A14.81,14.81,0,0,0,287.349,256Z" transform="translate(-244.089 -227.546)" fill="#fd3581"/>
        <path id="Trazado_989303" data-name="Trazado 989303" d="M291.627,141.478a14.88,14.88,0,0,1-.315,3.051l-3.963-3.051a14.81,14.81,0,0,0-12.669-14.654,14.975,14.975,0,0,1,2.139-.153,14.807,14.807,0,0,1,14.808,14.808Z" transform="translate(-244.089 -113.025)" fill="#26a6fe"/>
        <path id="Trazado_989304" data-name="Trazado 989304" d="M7.5,35.952A28.453,28.453,0,0,1,35.952,7.5l.347.27A28.467,28.467,0,0,0,11.986,32.5Z" transform="translate(-7.5 -7.5)" fill="#0ab69f"/>
        <path id="Trazado_989305" data-name="Trazado 989305" d="M35.952,257.727A28.453,28.453,0,0,1,7.5,229.275l4.487-3.456a28.677,28.677,0,0,0-.208,3.456,28.463,28.463,0,0,0,23.894,28.089Z" transform="translate(-7.5 -200.822)" fill="#ffd15b"/>
        <g id="Grupo_1155783" data-name="Grupo 1155783" transform="translate(41.744 41.103)">
          <circle id="Elipse_11850" data-name="Elipse 11850" cx="4.698" cy="4.698" r="4.698" transform="translate(0 0.001)" fill="#ffdfcf"/>
          <path id="Trazado_989306" data-name="Trazado 989306" d="M378.237,375.654a4.7,4.7,0,1,1,0-8.936,4.7,4.7,0,0,0,0,8.936Z" transform="translate(-372.084 -366.487)" fill="#ffcebf"/>
          <path id="Trazado_989307" data-name="Trazado 989307" d="M375.008,453.259a1.177,1.177,0,0,1-1.109-1.57,4.7,4.7,0,0,1,8.859,0,1.177,1.177,0,0,1-1.109,1.57Z" transform="translate(-373.631 -439.164)" fill="#7a6d79"/>
          <path id="Trazado_989308" data-name="Trazado 989308" d="M376.808,451.687a1.177,1.177,0,0,0,1.108,1.57h-2.909a1.177,1.177,0,0,1-1.108-1.57,4.7,4.7,0,0,1,5.884-2.9A4.709,4.709,0,0,0,376.808,451.687Z" transform="translate(-373.63 -439.161)" fill="#685e68"/>
        </g>
        <g id="Grupo_1155784" data-name="Grupo 1155784" transform="translate(4.177 42.698)">
          <path id="Trazado_989309" data-name="Trazado 989309" d="M70.63,396.461v8.062a1.85,1.85,0,0,1-1.849,1.849H63.168a1.85,1.85,0,0,1-1.848-1.849v-8.062l4.654-1.649Z" transform="translate(-59.335 -393.164)" fill="#c8effe"/>
          <path id="Trazado_989310" data-name="Trazado 989310" d="M70.63,396.461v2.575H61.32v-2.575l4.654-1.649Z" transform="translate(-59.335 -393.164)" fill="#99e6fc"/>
          <path id="Trazado_989311" data-name="Trazado 989311" d="M65.977,406.372H63.169a1.85,1.85,0,0,1-1.849-1.849v-8.062l4.655-1.649,1.4.5-3.252,1.152v8.062A1.85,1.85,0,0,0,65.977,406.372Z" transform="translate(-59.335 -393.164)" fill="#99e6fc"/>
          <path id="Trazado_989312" data-name="Trazado 989312" d="M55.614,380.42H45.631a1.648,1.648,0,1,0,0,3.3h9.983a1.648,1.648,0,1,0,0-3.3Z" transform="translate(-43.983 -380.42)" fill="#c8effe"/>
          <path id="Trazado_989313" data-name="Trazado 989313" d="M48.217,383.239a1.639,1.639,0,0,0,1.166.483h-3.75a1.648,1.648,0,1,1,0-3.3h3.75a1.648,1.648,0,0,0-1.166,2.813Z" transform="translate(-43.984 -380.425)" fill="#99e6fc"/>
        </g>
        <path id="Trazado_989314" data-name="Trazado 989314" d="M180.916,202.654a9.745,9.745,0,0,0,2.845-6.117l-1.478.638a.845.845,0,0,1-1.174-.874l.852-7.3a.845.845,0,0,1,1.344-.58l5.895,4.386a.845.845,0,0,1-.17,1.454l-1.818.784a13.232,13.232,0,0,1-.431,4.114l-2.295,3.493h-3.569Z" transform="translate(-161.06 -167.558)" fill="#fd3581"/>
        <g id="Grupo_1155786" data-name="Grupo 1155786" transform="translate(39.397 2.705)">
          <path id="Trazado_989315" data-name="Trazado 989315" d="M403.063,56.264c.109.3,2.079.547,2.364.689l1.72.863a.9.9,0,0,1,.495.8v3.873a.965.965,0,0,1-.964.965H399.6l-2.729-4.171,1.58-3.828" transform="translate(-391.685 -52.67)" fill="#c8effe"/>
          <path id="Trazado_989316" data-name="Trazado 989316" d="M412.88,35.4h-7.595l1.767-4.282h3.269a.9.9,0,0,1,.844.589l1.1,3A1.246,1.246,0,0,0,412.88,35.4Z" transform="translate(-399.137 -31.122)" fill="#685e68"/>
          <path id="Trazado_989317" data-name="Trazado 989317" d="M359.5,31.12V41.905h-6.949a.966.966,0,0,1-.965-.965V32.086a.966.966,0,0,1,.965-.966Z" transform="translate(-351.588 -31.12)" fill="#fe5694"/>
          <path id="Trazado_989318" data-name="Trazado 989318" d="M355.21,41.906h-2.656a.966.966,0,0,1-.965-.966V32.086a.966.966,0,0,1,.965-.965h2.656a.966.966,0,0,0-.965.965v8.854A.966.966,0,0,0,355.21,41.906Z" transform="translate(-351.588 -31.121)" fill="#fd3581"/>
          <g id="Grupo_1155785" data-name="Grupo 1155785" transform="translate(1.9 8.749)">
            <circle id="Elipse_11851" data-name="Elipse 11851" cx="2.036" cy="2.036" r="2.036" fill="#685e68"/>
            <circle id="Elipse_11852" data-name="Elipse 11852" cx="2.036" cy="2.036" r="2.036" transform="translate(8.087)" fill="#685e68"/>
          </g>
        </g>
        <g id="Grupo_1155787" data-name="Grupo 1155787" transform="translate(1.731 1.225)">
          <path id="Trazado_989319" data-name="Trazado 989319" d="M35.22,18.393a.94.94,0,0,0-1.515.743v2.375l-4.029-3.118a.94.94,0,0,0-1.515.743v2.375l-4.029-3.118a.94.94,0,0,0-1.515.743V29a1.087,1.087,0,0,0,1.087,1.087H38.162A1.087,1.087,0,0,0,39.249,29V22.522a2.061,2.061,0,0,0-.8-1.63Z" transform="translate(-22.618 -18.194)" fill="#efedef"/>
          <path id="Trazado_989320" data-name="Trazado 989320" d="M27.337,30.1H23.708a1.087,1.087,0,0,1-1.087-1.087V19.141a.94.94,0,0,1,1.515-.742l2.114,1.636V29.01A1.088,1.088,0,0,0,27.337,30.1Z" transform="translate(-22.621 -18.2)" fill="#dedbee"/>
        </g>
        <path id="Trazado_989321" data-name="Trazado 989321" d="M193.687,266.145,189.3,260.25a.845.845,0,0,0-1.454.17l-.784,1.818a13.152,13.152,0,0,0-10.035,3.867,1.717,1.717,0,0,0,2.429,2.429,9.745,9.745,0,0,1,6.117-2.845l-.638,1.478a.845.845,0,0,0,.874,1.174l7.3-.852A.845.845,0,0,0,193.687,266.145Z" transform="translate(-157.172 -231.009)" fill="#fe5694"/>
      </g>
      <g id="Grupo_1155789" data-name="Grupo 1155789" transform="translate(0 0)">
        <path id="Trazado_989322" data-name="Trazado 989322" d="M50.263,51.359a5.556,5.556,0,0,0,2.592-4.59A29.325,29.325,0,0,0,55.03,15.242l.012-.035h.206a1.827,1.827,0,0,0,1.824-1.825V9.51a1.748,1.748,0,0,0-.97-1.57l-1.719-.862a.394.394,0,0,1-.194-.217l-1.1-3A1.76,1.76,0,0,0,51.439,2.7h-9.82a29.357,29.357,0,0,0-24.528-.04L15.717,1.6a1.8,1.8,0,0,0-2.9,1.422v.625L10.174,1.6a1.8,1.8,0,0,0-2.9,1.422v.625L4.63,1.6a1.8,1.8,0,0,0-2.9,1.422v9.869a1.948,1.948,0,0,0,1.946,1.946h.142A29.191,29.191,0,0,0,2.28,17.959a.859.859,0,1,0,1.583.665,27.545,27.545,0,0,1,1.95-3.786h12.32a1.948,1.948,0,0,0,1.946-1.946V6.411A2.939,2.939,0,0,0,18.947,4.1l-.313-.242A27.311,27.311,0,0,1,28.893,1.723L32.954,7a1.122,1.122,0,0,1,0,1.367l-4.07,5.286a15.69,15.69,0,0,0-15.15,13.985L9.412,24.307a2.84,2.84,0,0,0-3.463,0L1.775,27.522a27.558,27.558,0,0,1,.844-5.231.859.859,0,0,0-1.661-.436A29.388,29.388,0,0,0,4.266,44.545a2.506,2.506,0,0,0,1.9,3.112v7.258A2.711,2.711,0,0,0,8.87,57.623h5.612A2.712,2.712,0,0,0,17,55.915a28.981,28.981,0,0,0,12.314,2.707,29.369,29.369,0,0,0,12.8-2.938,2.027,2.027,0,0,0,1.868,1.232h.906a.859.859,0,1,0,0-1.717h-.906a.318.318,0,0,1-.3-.424A3.847,3.847,0,0,1,47.3,52.217h.009a3.849,3.849,0,0,1,3.616,2.557.319.319,0,0,1-.3.424H48.893a.859.859,0,0,0,0,1.717h1.729A2.036,2.036,0,0,0,52.54,54.2a5.558,5.558,0,0,0-2.277-2.842Zm-31.9-38.466a.229.229,0,0,1-.228.228H3.677a.229.229,0,0,1-.228-.228V3.024a.071.071,0,0,1,.045-.073.088.088,0,0,1,.038-.01.073.073,0,0,1,.046.019L7.608,6.079A.859.859,0,0,0,8.992,5.4V3.024a.081.081,0,0,1,.13-.064l4.029,3.118A.859.859,0,0,0,14.536,5.4V3.024a.081.081,0,0,1,.13-.064l3.23,2.5a1.21,1.21,0,0,1,.466.951ZM47.307,50.5h-.012a3.839,3.839,0,1,1,.012,0Zm4.971-34.975a1.177,1.177,0,1,1,1.177-1.177,1.178,1.178,0,0,1-1.177,1.177Zm3.055-6.05a.039.039,0,0,1,.022.035v3.872a.107.107,0,0,1-.106.108h-.206a2.895,2.895,0,0,0-5.529,0h-.485V8.7H53.8ZM51.475,4.447l.931,2.54H49.029V4.422h2.41A.039.039,0,0,1,51.475,4.447ZM34.315,9.412a2.841,2.841,0,0,0,0-3.463L31.1,1.776A27.243,27.243,0,0,1,39.6,3.7a1.81,1.81,0,0,0-.2.829V6.952a.859.859,0,0,0,1.717,0V4.528a.107.107,0,0,1,.106-.106h6.09v9.068h-.356a2.895,2.895,0,0,0-5.528,0h-.206a.107.107,0,0,1-.106-.108V10.96a.859.859,0,1,0-1.717,0v2.423a1.827,1.827,0,0,0,1.824,1.825h.206a2.895,2.895,0,0,0,5.528,0h2.559a2.893,2.893,0,0,0,4.372,1.546A27.62,27.62,0,0,1,56.9,28.891l-5.276,4.063a1.121,1.121,0,0,1-1.367,0l-5.286-4.07a15.69,15.69,0,0,0-13.985-15.15Zm11.053,4.936a1.177,1.177,0,1,1-1.177-1.177A1.178,1.178,0,0,1,45.368,14.348ZM29.311,15.362A13.949,13.949,0,1,1,15.362,29.311,13.965,13.965,0,0,1,29.311,15.362ZM7,25.668a1.122,1.122,0,0,1,1.367,0l5.286,4.07a15.69,15.69,0,0,0,13.985,15.15L24.307,49.21a2.841,2.841,0,0,0,0,3.463l3.214,4.174A27.186,27.186,0,0,1,17.19,54.1V47.657a2.507,2.507,0,0,0-.523-4.959h-.941V41.74a1.922,1.922,0,0,0-1.919-1.919H9.545A1.922,1.922,0,0,0,7.625,41.74V42.7H6.684a2.491,2.491,0,0,0-1.3.364A27.523,27.523,0,0,1,1.721,29.731ZM14.009,42.7H9.343V41.74a.2.2,0,0,1,.2-.2h4.262a.2.2,0,0,1,.2.2V42.7ZM5.895,45.205a.79.79,0,0,1,.79-.79h9.983a.79.79,0,1,1,0,1.579H6.684a.79.79,0,0,1-.79-.79Zm9.577,9.71a.991.991,0,0,1-.99.99H8.87a.991.991,0,0,1-.99-.99v-7.2h7.593v7.2Zm26.81-1.245A27.611,27.611,0,0,1,29.731,56.9l-4.063-5.276a1.122,1.122,0,0,1,0-1.367l4.07-5.286a15.69,15.69,0,0,0,15.15-13.985l4.322,3.328a2.841,2.841,0,0,0,3.463,0L56.848,31.1a27.261,27.261,0,0,1-4.456,13.337,5.556,5.556,0,1,0-8.054,6.921,5.558,5.558,0,0,0-2.056,2.311Z" transform="translate(0 0)"/>
        <path id="Trazado_989323" data-name="Trazado 989323" d="M51.5,62.647H40.3a.859.859,0,1,0,0,1.717H51.5a.859.859,0,1,0,0-1.717Z" transform="translate(-34.925 -55.474)"/>
        <path id="Trazado_989324" data-name="Trazado 989324" d="M51.5,87.7H40.3a.859.859,0,1,0,0,1.717H51.5a.859.859,0,1,0,0-1.717Z" transform="translate(-34.925 -77.657)"/>
        <path id="Trazado_989325" data-name="Trazado 989325" d="M171.61,199.792a2.559,2.559,0,0,0,1.822-.755,8.976,8.976,0,0,1,4.1-2.345l-.014.031a1.7,1.7,0,0,0,1.762,2.367l7.3-.852a1.7,1.7,0,0,0,1.169-2.709l-4.386-5.895a1.7,1.7,0,0,0-2.931.342l-.553,1.282a14.2,14.2,0,0,0-2.507.195,14.1,14.1,0,0,0,.2-2.5l1.282-.553a1.7,1.7,0,0,0,.342-2.931l-5.895-4.386a1.7,1.7,0,0,0-2.709,1.169l-.852,7.3a1.7,1.7,0,0,0,2.367,1.762l.031-.014a8.975,8.975,0,0,1-2.345,4.1,2.576,2.576,0,0,0,1.822,4.4Zm15.446-3.75-.688.515v0Zm-6.669-3.05a.857.857,0,0,0,.833-.517l.775-1.8,4.358,5.857-7.251.847.628-1.456a.859.859,0,0,0-.859-1.2,10.66,10.66,0,0,0-6.655,3.093A.859.859,0,0,1,171,196.608a12.219,12.219,0,0,1,8.724-3.633Q180.055,192.975,180.387,192.992Zm-8.943-3.268.847-7.251,5.857,4.358-1.8.775a.859.859,0,0,0-.517.833,12.386,12.386,0,0,1-.306,3.455,13.75,13.75,0,0,0-2.04.822,10.55,10.55,0,0,0,.608-2.762.859.859,0,0,0-1.2-.859Z" transform="translate(-149.681 -160.048)"/>
      </g>
    </g>
  </g>
</svg>
