<svg xmlns="http://www.w3.org/2000/svg" xmlns:xlink="http://www.w3.org/1999/xlink" width="108" height="108" viewBox="0 0 108 108">
  <defs>
    <filter id="Trazado_982547" x="0" y="0" width="108" height="108" filterUnits="userSpaceOnUse">
      <feOffset dy="3" input="SourceAlpha"/>
      <feGaussianBlur stdDeviation="3" result="blur"/>
      <feFlood flood-opacity="0.161"/>
      <feComposite operator="in" in2="blur"/>
      <feComposite in="SourceGraphic"/>
    </filter>
  </defs>
  <g id="Grupo_1156251" data-name="Grupo 1156251" transform="translate(-194 -899)">
    <g id="Grupo_1154408" data-name="Grupo 1154408" transform="translate(203 905)">
      <g id="Grupo_1153134" data-name="Grupo 1153134">
        <g id="Grupo_1149598" data-name="Grupo 1149598">
          <g id="Grupo_1148770" data-name="Grupo 1148770">
            <g id="Grupo_1146954" data-name="Grupo 1146954">
              <g transform="matrix(1, 0, 0, 1, -9, -6)" filter="url(#Trazado_982547)">
                <g id="Trazado_982547-2" data-name="Trazado 982547" transform="translate(9 6)" fill="#e4f2f4">
                  <path d="M 45 88.5 C 39.12687683105469 88.5 33.43022537231445 87.35007476806641 28.06830024719238 85.08217620849609 C 22.88852500915527 82.89131164550781 18.23629951477051 79.75458526611328 14.2408504486084 75.75914764404297 C 10.24541282653809 71.76370239257812 7.108687400817871 67.11147308349609 4.917825222015381 61.93170166015625 C 2.649924993515015 56.56977462768555 1.5 50.87312316894531 1.5 45 C 1.5 39.12687683105469 2.649924993515015 33.43022537231445 4.917825222015381 28.06830024719238 C 7.108687400817871 22.88852500915527 10.24541282653809 18.23629951477051 14.2408504486084 14.2408504486084 C 18.23629951477051 10.24541282653809 22.88852500915527 7.108687400817871 28.06830024719238 4.917825222015381 C 33.43022537231445 2.649924993515015 39.12687683105469 1.5 45 1.5 C 50.87312316894531 1.5 56.56977462768555 2.649924993515015 61.93170166015625 4.917825222015381 C 67.11147308349609 7.108687400817871 71.76370239257812 10.24541282653809 75.75914764404297 14.2408504486084 C 79.75458526611328 18.23629951477051 82.89131164550781 22.88852500915527 85.08217620849609 28.06830024719238 C 87.35007476806641 33.43022537231445 88.5 39.12687683105469 88.5 45 C 88.5 50.87312316894531 87.35007476806641 56.56977462768555 85.08217620849609 61.93170166015625 C 82.89131164550781 67.11147308349609 79.75458526611328 71.76370239257812 75.75914764404297 75.75914764404297 C 71.76370239257812 79.75458526611328 67.11147308349609 82.89131164550781 61.93170166015625 85.08217620849609 C 56.56977462768555 87.35007476806641 50.87312316894531 88.5 45 88.5 Z" stroke="none"/>
                  <path d="M 45 3 C 39.32871246337891 3 33.82865524291992 4.110054016113281 28.65262985229492 6.299339294433594 C 23.65165710449219 8.414573669433594 19.15968322753906 11.44334411621094 15.301513671875 15.301513671875 C 11.44334411621094 19.15968322753906 8.414573669433594 23.65165710449219 6.299339294433594 28.65262985229492 C 4.110054016113281 33.82865524291992 3 39.32871246337891 3 45 C 3 50.67128753662109 4.110054016113281 56.17134475708008 6.299339294433594 61.34737396240234 C 8.414573669433594 66.34834289550781 11.44334411621094 70.84031677246094 15.301513671875 74.698486328125 C 19.15968322753906 78.55665588378906 23.65165710449219 81.58542633056641 28.65262985229492 83.70066070556641 C 33.82865524291992 85.88994598388672 39.32871246337891 87 45 87 C 50.67128753662109 87 56.17134475708008 85.88994598388672 61.34737396240234 83.70066070556641 C 66.34834289550781 81.58542633056641 70.84031677246094 78.55665588378906 74.698486328125 74.698486328125 C 78.55665588378906 70.84031677246094 81.58542633056641 66.34834289550781 83.70066070556641 61.34737396240234 C 85.88994598388672 56.17134475708008 87 50.67128753662109 87 45 C 87 39.32871246337891 85.88994598388672 33.82865524291992 83.70066070556641 28.65262985229492 C 81.58542633056641 23.65165710449219 78.55665588378906 19.15968322753906 74.698486328125 15.301513671875 C 70.84031677246094 11.44334411621094 66.34834289550781 8.414573669433594 61.34737396240234 6.299339294433594 C 56.17134475708008 4.110054016113281 50.67128753662109 3 45 3 M 45 0 C 69.85281372070312 0 90 20.14718627929688 90 45 C 90 69.85281372070312 69.85281372070312 90 45 90 C 20.14718627929688 90 0 69.85281372070312 0 45 C 0 20.14718627929688 20.14718627929688 0 45 0 Z" stroke="none" fill="#01899b"/>
                </g>
              </g>
            </g>
          </g>
        </g>
      </g>
    </g>
    <g id="divisa" transform="translate(217 911.61)">
      <g id="Grupo_1156249" data-name="Grupo 1156249" transform="translate(0.899 9.289)">
        <g id="Grupo_1156246" data-name="Grupo 1156246" transform="translate(0 0)">
          <path id="Trazado_989789" data-name="Trazado 989789" d="M63.819,75.527a10.938,10.938,0,0,1,5.706,1.6,5.571,5.571,0,1,0-10.189-.642A10.951,10.951,0,0,1,63.819,75.527Z" transform="translate(-52.829 -62.636)" fill="#ffc344"/>
          <path id="Trazado_989790" data-name="Trazado 989790" d="M85.824,97.532a11,11,0,0,1,2.94.4,2.576,2.576,0,1,0-4.528-.284A11.069,11.069,0,0,1,85.824,97.532Z" transform="translate(-74.834 -84.64)" fill="#fff6ce"/>
          <g id="Grupo_1156227" data-name="Grupo 1156227" transform="translate(38.964)">
            <path id="Trazado_989791" data-name="Trazado 989791" d="M342.493,15.89a9.811,9.811,0,0,0-9.421,12.552,21.562,21.562,0,0,1,7.652,6.91,9.811,9.811,0,1,0,1.769-19.462Z" transform="translate(-332.681 -15.89)" fill="#fff0ad"/>
            <path id="Trazado_989792" data-name="Trazado 989792" d="M338.432,25.7a9.815,9.815,0,0,1,6.936-9.383,9.812,9.812,0,0,0-12.3,12.123,21.562,21.562,0,0,1,7.652,6.91,9.806,9.806,0,0,0,4.645-.267A9.815,9.815,0,0,1,338.432,25.7Z" transform="translate(-332.681 -15.889)" fill="#ffe177"/>
          </g>
          <g id="Grupo_1156234" data-name="Grupo 1156234" transform="translate(7.968 10.013)">
            <path id="Trazado_989793" data-name="Trazado 989793" d="M103.6,128.434A11,11,0,0,1,116.456,117.6a21.463,21.463,0,0,0-33.45-14.315,5.547,5.547,0,0,1-.282.639A10.994,10.994,0,0,1,74,123.89a21.46,21.46,0,0,0,34.649,13.788,10.981,10.981,0,0,1-5.045-9.244Z" transform="translate(-73.996 -99.452)" fill="#60b7ff"/>
            <g id="Grupo_1156228" data-name="Grupo 1156228" transform="translate(21.254 0)">
              <path id="Trazado_989794" data-name="Trazado 989794" d="M261.428,390.41c-2.36,4.911-5.987,8.057-10.056,8.057a21.42,21.42,0,0,0,7.189-1.236,14.07,14.07,0,0,0,4.592-4.727A11.042,11.042,0,0,1,261.428,390.41Z" transform="translate(-251.372 -355.546)" fill="#26a6fe"/>
              <path id="Trazado_989795" data-name="Trazado 989795" d="M264.222,119.565a10.96,10.96,0,0,1,2.79-1.482c-.639-8.08-3.974-14.743-8.451-17.4a21.421,21.421,0,0,0-7.189-1.236C258.212,99.452,263.8,108.34,264.222,119.565Z" transform="translate(-251.372 -99.452)" fill="#26a6fe"/>
            </g>
            <g id="Grupo_1156229" data-name="Grupo 1156229" transform="translate(0 0)">
              <path id="Trazado_989796" data-name="Trazado 989796" d="M77.887,303.787q-.43.034-.869.034A11,11,0,0,1,74,303.4a21.464,21.464,0,0,0,21.254,18.483c.646,0,1.285-.03,1.917-.086A21.469,21.469,0,0,1,77.887,303.787Z" transform="translate(-73.995 -278.962)" fill="#26a6fe"/>
              <path id="Trazado_989797" data-name="Trazado 989797" d="M147.118,103.288a5.55,5.55,0,0,1-.282.639,11.018,11.018,0,0,1,1.723,1.3,21.383,21.383,0,0,1,12.72-5.683c-.632-.056-1.271-.086-1.917-.086A21.359,21.359,0,0,0,147.118,103.288Z" transform="translate(-138.108 -99.453)" fill="#26a6fe"/>
            </g>
            <path id="Trazado_989798" data-name="Trazado 989798" d="M165.543,128.434a10.974,10.974,0,0,1,4.5-8.869c-.417-11.224-6.011-20.113-12.85-20.113-3.8,0-7.213,2.742-9.57,7.1a10.992,10.992,0,0,1-3.252,16.333c.6,10.926,6.11,19.484,12.821,19.484,4.069,0,7.7-3.146,10.056-8.057A10.937,10.937,0,0,1,165.543,128.434Z" transform="translate(-135.938 -99.452)" fill="#00f2a6"/>
            <g id="Grupo_1156230" data-name="Grupo 1156230" transform="translate(21.254 0)">
              <path id="Trazado_989799" data-name="Trazado 989799" d="M251.372,142.374a8.4,8.4,0,0,0,4.314-1.236c1.663-2.956,2.854-10.895,2.854-20.225s-1.191-17.269-2.854-20.225a8.4,8.4,0,0,0-4.314-1.236c2.37,0,4.292,9.608,4.292,21.46S253.742,142.374,251.372,142.374Z" transform="translate(-251.372 -99.453)" fill="#05e39c"/>
            </g>
            <g id="Grupo_1156231" data-name="Grupo 1156231" transform="translate(8.432 0)">
              <path id="Trazado_989800" data-name="Trazado 989800" d="M148.149,266.661q0-.817.037-1.619a11.044,11.044,0,0,1-3.816,3.595c.6,10.926,6.11,19.484,12.821,19.484a7.917,7.917,0,0,0,1.917-.237C152.906,286.341,148.149,277.427,148.149,266.661Z" transform="translate(-144.369 -245.2)" fill="#05e39c"/>
              <path id="Trazado_989801" data-name="Trazado 989801" d="M171.506,106.555a10.947,10.947,0,0,1,2.041,4.257c1.881-5.865,5.348-10.1,9.446-11.124a7.919,7.919,0,0,0-1.917-.237C177.277,99.452,173.863,102.195,171.506,106.555Z" transform="translate(-168.254 -99.452)" fill="#05e39c"/>
            </g>
            <g id="Grupo_1156232" data-name="Grupo 1156232" transform="translate(16.962 0)">
              <ellipse id="Elipse_11860" data-name="Elipse 11860" cx="4.292" cy="21.46" rx="4.292" ry="21.46" fill="#60b7ff"/>
            </g>
            <g id="Grupo_1156233" data-name="Grupo 1156233" transform="translate(16.962 0)">
              <path id="Trazado_989802" data-name="Trazado 989802" d="M219.386,120.913c0-8.407.967-15.683,2.375-19.2-.577-1.443-1.228-2.256-1.917-2.256-2.37,0-4.292,9.608-4.292,21.46s1.922,21.46,4.292,21.46c.689,0,1.34-.813,1.917-2.256C220.353,136.6,219.386,129.32,219.386,120.913Z" transform="translate(-215.552 -99.453)" fill="#26a6fe"/>
            </g>
          </g>
          <g id="Grupo_1156239" data-name="Grupo 1156239" transform="translate(37.572 28.004)">
            <g id="Grupo_1156238" data-name="Grupo 1156238">
              <g id="Grupo_1156237" data-name="Grupo 1156237">
                <g id="Grupo_1156235" data-name="Grupo 1156235">
                  <circle id="Elipse_11861" data-name="Elipse 11861" cx="10.99" cy="10.99" r="10.99" fill="#ffe177"/>
                </g>
                <g id="Grupo_1156236" data-name="Grupo 1156236" transform="translate(0 0)">
                  <path id="Trazado_989803" data-name="Trazado 989803" d="M325.854,260.593a10.994,10.994,0,0,1,8.594-10.727,10.99,10.99,0,1,0,0,21.455A10.994,10.994,0,0,1,325.854,260.593Z" transform="translate(-321.061 -249.603)" fill="#ffd15b"/>
                </g>
              </g>
            </g>
          </g>
          <g id="Grupo_1156245" data-name="Grupo 1156245" transform="translate(0 12.891)">
            <g id="Grupo_1156243" data-name="Grupo 1156243">
              <g id="Grupo_1156242" data-name="Grupo 1156242">
                <g id="Grupo_1156241" data-name="Grupo 1156241">
                  <g id="Grupo_1156240" data-name="Grupo 1156240">
                    <circle id="Elipse_11862" data-name="Elipse 11862" cx="10.99" cy="10.99" r="10.99" fill="#ffe177"/>
                  </g>
                </g>
              </g>
            </g>
            <g id="Grupo_1156244" data-name="Grupo 1156244" transform="translate(0 0)">
              <path id="Trazado_989804" data-name="Trazado 989804" d="M12.293,134.465a10.994,10.994,0,0,1,8.594-10.727,10.99,10.99,0,1,0,0,21.455A10.994,10.994,0,0,1,12.293,134.465Z" transform="translate(-7.5 -123.475)" fill="#ffd15b"/>
            </g>
          </g>
        </g>
        <g id="Grupo_1156247" data-name="Grupo 1156247" transform="translate(21.508 36.679)">
          <circle id="Elipse_11863" data-name="Elipse 11863" cx="3.834" cy="3.834" r="3.834" fill="#ffe177"/>
        </g>
        <g id="Grupo_1156248" data-name="Grupo 1156248" transform="translate(21.508 36.679)">
          <path id="Trazado_989805" data-name="Trazado 989805" d="M190.115,325.834a3.834,3.834,0,0,1,2.277-3.5,3.834,3.834,0,1,0,0,7.007A3.834,3.834,0,0,1,190.115,325.834Z" transform="translate(-187 -322)" fill="#ffd15b"/>
        </g>
      </g>
      <g id="Grupo_1156250" data-name="Grupo 1156250" transform="translate(0 8.39)">
        <path id="Trazado_989806" data-name="Trazado 989806" d="M383.785,42.533a.9.9,0,0,0-1.236.3l-3.119,5.083-3.119-5.083a.9.9,0,1,0-1.532.94l2.785,4.539h-1.582a.9.9,0,0,0,0,1.8h2.549v1.119h-2.549a.9.9,0,0,0,0,1.8h2.549V55.4a.9.9,0,0,0,1.8,0V53.021h2.549a.9.9,0,1,0,0-1.8h-2.549V50.105h2.549a.9.9,0,1,0,0-1.8H381.3l2.785-4.539A.9.9,0,0,0,383.785,42.533Z" transform="translate(-329.755 -38.325)"/>
        <path id="Trazado_989807" data-name="Trazado 989807" d="M379.125,282.148h2.843a1.17,1.17,0,0,1,1.169,1.169.9.9,0,1,0,1.8,0,2.97,2.97,0,0,0-2.967-2.966h-.523v-1a.9.9,0,0,0-1.8,0v1h-.523a2.97,2.97,0,0,0-2.967,2.966v.6a2.97,2.97,0,0,0,2.967,2.966h2.843a1.17,1.17,0,0,1,1.169,1.169v.6a1.17,1.17,0,0,1-1.169,1.169h-2.843a1.17,1.17,0,0,1-1.169-1.169.9.9,0,0,0-1.8,0,2.97,2.97,0,0,0,2.967,2.966h.523v1a.9.9,0,0,0,1.8,0v-1h.523a2.97,2.97,0,0,0,2.967-2.966v-.6a2.97,2.97,0,0,0-2.967-2.966h-2.843a1.17,1.17,0,0,1-1.169-1.169v-.6A1.17,1.17,0,0,1,379.125,282.148Z" transform="translate(-331.086 -246.095)"/>
        <path id="Trazado_989808" data-name="Trazado 989808" d="M115.563,444.472a25.111,25.111,0,0,1-6.906-3.965.9.9,0,0,0-1.13,1.4,26.9,26.9,0,0,0,7.4,4.249.9.9,0,0,0,.636-1.681Z" transform="translate(-94.349 -388.553)"/>
        <path id="Trazado_989809" data-name="Trazado 989809" d="M57.034,39.127a26.87,26.87,0,0,0-2.756-10.359,10.686,10.686,0,0,0,5.854-7.35.9.9,0,1,0-1.755-.387,8.906,8.906,0,0,1-9.962,6.893,22.527,22.527,0,0,0-7.389-6.675,8.913,8.913,0,1,1,17.363-4.029.9.9,0,0,0,1.757-.378A10.711,10.711,0,0,0,39.586,15.5a26.864,26.864,0,0,0-7.406-1.632.9.9,0,0,0-.136,1.792,25.076,25.076,0,0,1,7.08,1.586,10.736,10.736,0,0,0-.1,3.005A22.325,22.325,0,0,0,19.11,21.308c0-.028,0-.056,0-.084a6.432,6.432,0,0,0-.63-2.782,25.036,25.036,0,0,1,9.512-2.76.9.9,0,1,0-.15-1.791,26.835,26.835,0,0,0-10.363,3.045,6.46,6.46,0,0,0-7.225-1.727.9.9,0,1,0,.663,1.67A4.668,4.668,0,0,1,17.134,22.5a11.8,11.8,0,0,0-1.112-.48,3.475,3.475,0,1,0-6.836-.432,11.785,11.785,0,0,0-1.164.336,4.651,4.651,0,0,1,.355-2.613.9.9,0,0,0-1.64-.736,6.452,6.452,0,0,0-.4,4.084A11.877,11.877,0,0,0,3.158,41.231a26.916,26.916,0,0,0,6.874,17.521.9.9,0,1,0,1.338-1.2,25.113,25.113,0,0,1-6.33-14.671,11.86,11.86,0,0,0,3.022,1.546A22.347,22.347,0,0,0,43.574,58.609a11.817,11.817,0,0,0,2.978,1.2A25.06,25.06,0,0,1,30.12,65.932a25.353,25.353,0,0,1-5.015-.5.9.9,0,1,0-.356,1.762,27.149,27.149,0,0,0,5.371.536,26.782,26.782,0,0,0,18.736-7.574c.2.01.4.017.6.017a11.834,11.834,0,0,0,6.588-1.992.9.9,0,0,0-1-1.5,10.09,10.09,0,1,1,2.741-2.707.9.9,0,0,0,1.483,1.016,11.878,11.878,0,0,0-2.242-15.867ZM38.455,26.049a22.45,22.45,0,0,1,1.7,3.513H34.688c-.181-1.491-.4-2.885-.652-4.151a21.837,21.837,0,0,0-1.407-4.751A12.059,12.059,0,0,1,38.455,26.049ZM26.816,45.105c-.047-1.126-.076-2.277-.085-3.445H33.51c-.025,2.992-.173,5.878-.432,8.5H30.959c.009-.12.015-.24.015-.362a4.739,4.739,0,0,0-4.158-4.7Zm-5.293,5.059H19.475a31.571,31.571,0,0,1-1.247-6.941A11.97,11.97,0,0,0,20.2,41.66h4.732c.01,1.21.041,2.4.09,3.568A4.741,4.741,0,0,0,21.508,49.8C21.508,49.924,21.514,50.045,21.524,50.164Zm2.116-18.8h1.718c-.254,2.636-.4,5.517-.424,8.5H21.709a11.879,11.879,0,0,0,1.93-8.5Zm2.6,15.507A2.936,2.936,0,1,1,23.306,49.8,2.939,2.939,0,0,1,26.241,46.866Zm.489-7c.025-2.992.173-5.878.432-8.5h5.915c.259,2.625.407,5.511.432,8.5ZM30.118,20.2h0c.025.007,1.158.436,2.2,5.77.215,1.105.4,2.31.563,3.592H27.363c.16-1.282.348-2.487.563-3.592C28.963,20.641,30.095,20.208,30.118,20.2Zm-2.506.46A21.841,21.841,0,0,0,26.2,25.411c-.253,1.266-.471,2.66-.652,4.151H23.218a11.854,11.854,0,0,0-1.6-3.218c.057-.1.112-.2.17-.294a12.059,12.059,0,0,1,5.825-5.389Zm-4.435.748A17.179,17.179,0,0,0,20.4,24.877a12.008,12.008,0,0,0-1.525-1.318A20.525,20.525,0,0,1,23.177,21.408ZM12.641,19.547a1.673,1.673,0,0,1,1.649,1.978,11.9,11.9,0,0,0-2.4-.244q-.465,0-.921.035c0-.031,0-.061,0-.092A1.679,1.679,0,0,1,12.641,19.547ZM1.8,33.17A10.092,10.092,0,1,1,11.889,43.261,10.1,10.1,0,0,1,1.8,33.17ZM9.98,44.9a11.895,11.895,0,0,0,6.521-.777,33.34,33.34,0,0,0,1.1,6.036H11.839A20.417,20.417,0,0,1,9.98,44.9Zm2.9,7.057h5.293A24.654,24.654,0,0,0,20.245,56.4a17.365,17.365,0,0,0,2.931,3.717A20.669,20.669,0,0,1,12.884,51.961Zm8.9,3.513a22.449,22.449,0,0,1-1.7-3.513h1.941a4.739,4.739,0,0,0,3.885,2.561c.09.549.186,1.081.288,1.59a21.837,21.837,0,0,0,1.407,4.751A12.059,12.059,0,0,1,21.786,55.474Zm8.337,5.849h0c-.025-.007-1.158-.435-2.2-5.77-.078-.4-.153-.822-.224-1.25a4.756,4.756,0,0,0,2.749-2.342h2.427c-.16,1.282-.348,2.487-.563,3.592-1.037,5.33-2.169,5.762-2.192,5.77Zm2.506-.46a21.841,21.841,0,0,0,1.407-4.751c.253-1.266.471-2.66.652-4.151h3.467a11.83,11.83,0,0,0,1,2.242c-.222.437-.454.862-.7,1.271a12.059,12.059,0,0,1-5.825,5.389ZM40,56.4c.106-.177.208-.358.31-.54A11.993,11.993,0,0,0,42,57.533a20.528,20.528,0,0,1-4.935,2.582A17.369,17.369,0,0,0,40,56.4Zm-2.424-8.116a11.919,11.919,0,0,0,.149,1.881H34.883c.254-2.636.4-5.517.424-8.5h4.285a11.819,11.819,0,0,0-2.02,6.623Zm3.5-8.42H35.307c-.024-2.987-.169-5.868-.424-8.5h5.882a31.881,31.881,0,0,1,1.287,7.633A11.98,11.98,0,0,0,41.076,39.863Zm.988-10.3A24.648,24.648,0,0,0,40,25.125a17.369,17.369,0,0,0-2.93-3.716,20.668,20.668,0,0,1,10.289,8.154Zm7.4,6.832a11.816,11.816,0,0,0-5.682,1.448,33.539,33.539,0,0,0-1.142-6.483H48.4a20.414,20.414,0,0,1,1.817,5.06C49.968,36.4,49.715,36.394,49.461,36.394Zm2.645.3a22.207,22.207,0,0,0-2.5-6.881h.069a10.7,10.7,0,0,0,2.91-.407,25.052,25.052,0,0,1,2.533,8.427A11.8,11.8,0,0,0,52.106,36.691Z" transform="translate(0 -8.39)"/>
        <path id="Trazado_989810" data-name="Trazado 989810" d="M50.207,172.788a.9.9,0,1,0-1.271-1.271,4.591,4.591,0,0,1-7.155-.832H46.54a.9.9,0,1,0,0-1.8h-5.4a4.632,4.632,0,0,1-.028-.967h5.43a.9.9,0,1,0,0-1.8H41.625a4.595,4.595,0,0,1,7.311-1.1.9.9,0,0,0,1.271-1.271,6.389,6.389,0,0,0-10.539,2.373H39.3a.9.9,0,1,0,0,1.8h.011a6.44,6.44,0,0,0,.02.967H39.3a.9.9,0,1,0,0,1.8h.472a6.4,6.4,0,0,0,10.436,2.1Z" transform="translate(-33.799 -143.489)"/>
      </g>
    </g>
  </g>
</svg>
