<svg xmlns="http://www.w3.org/2000/svg" xmlns:xlink="http://www.w3.org/1999/xlink" width="108" height="108" viewBox="0 0 108 108">
  <defs>
    <filter id="Trazado_982547" x="0" y="0" width="108" height="108" filterUnits="userSpaceOnUse">
      <feOffset dy="3" input="SourceAlpha"/>
      <feGaussianBlur stdDeviation="3" result="blur"/>
      <feFlood flood-opacity="0.161"/>
      <feComposite operator="in" in2="blur"/>
      <feComposite in="SourceGraphic"/>
    </filter>
  </defs>
  <g id="Grupo_1155290" data-name="Grupo 1155290" transform="translate(-166 -2836)">
    <g id="Grupo_1154035" data-name="Grupo 1154035" transform="translate(175 2842)">
      <g id="Grupo_1153134" data-name="Grupo 1153134">
        <g id="Grupo_1149598" data-name="Grupo 1149598">
          <g id="Grupo_1148770" data-name="Grupo 1148770">
            <g id="Grupo_1146954" data-name="Grupo 1146954">
              <g transform="matrix(1, 0, 0, 1, -9, -6)" filter="url(#Trazado_982547)">
                <g id="Trazado_982547-2" data-name="Trazado 982547" transform="translate(9 6)" fill="#f5fdfa">
                  <path d="M 45 88.5 C 39.12687683105469 88.5 33.43022537231445 87.35007476806641 28.06830024719238 85.08217620849609 C 22.88852500915527 82.89131164550781 18.23629951477051 79.75458526611328 14.2408504486084 75.75914764404297 C 10.24541282653809 71.76370239257812 7.108687400817871 67.11147308349609 4.917825222015381 61.93170166015625 C 2.649924993515015 56.56977462768555 1.5 50.87312316894531 1.5 45 C 1.5 39.12687683105469 2.649924993515015 33.43022537231445 4.917825222015381 28.06830024719238 C 7.108687400817871 22.88852500915527 10.24541282653809 18.23629951477051 14.2408504486084 14.2408504486084 C 18.23629951477051 10.24541282653809 22.88852500915527 7.108687400817871 28.06830024719238 4.917825222015381 C 33.43022537231445 2.649924993515015 39.12687683105469 1.5 45 1.5 C 50.87312316894531 1.5 56.56977462768555 2.649924993515015 61.93170166015625 4.917825222015381 C 67.11147308349609 7.108687400817871 71.76370239257812 10.24541282653809 75.75914764404297 14.2408504486084 C 79.75458526611328 18.23629951477051 82.89131164550781 22.88852500915527 85.08217620849609 28.06830024719238 C 87.35007476806641 33.43022537231445 88.5 39.12687683105469 88.5 45 C 88.5 50.87312316894531 87.35007476806641 56.56977462768555 85.08217620849609 61.93170166015625 C 82.89131164550781 67.11147308349609 79.75458526611328 71.76370239257812 75.75914764404297 75.75914764404297 C 71.76370239257812 79.75458526611328 67.11147308349609 82.89131164550781 61.93170166015625 85.08217620849609 C 56.56977462768555 87.35007476806641 50.87312316894531 88.5 45 88.5 Z" stroke="none"/>
                  <path d="M 45 3 C 39.32871246337891 3 33.82865524291992 4.110054016113281 28.65262985229492 6.299339294433594 C 23.65165710449219 8.414573669433594 19.15968322753906 11.44334411621094 15.301513671875 15.301513671875 C 11.44334411621094 19.15968322753906 8.414573669433594 23.65165710449219 6.299339294433594 28.65262985229492 C 4.110054016113281 33.82865524291992 3 39.32871246337891 3 45 C 3 50.67128753662109 4.110054016113281 56.17134475708008 6.299339294433594 61.34737396240234 C 8.414573669433594 66.34834289550781 11.44334411621094 70.84031677246094 15.301513671875 74.698486328125 C 19.15968322753906 78.55665588378906 23.65165710449219 81.58542633056641 28.65262985229492 83.70066070556641 C 33.82865524291992 85.88994598388672 39.32871246337891 87 45 87 C 50.67128753662109 87 56.17134475708008 85.88994598388672 61.34737396240234 83.70066070556641 C 66.34834289550781 81.58542633056641 70.84031677246094 78.55665588378906 74.698486328125 74.698486328125 C 78.55665588378906 70.84031677246094 81.58542633056641 66.34834289550781 83.70066070556641 61.34737396240234 C 85.88994598388672 56.17134475708008 87 50.67128753662109 87 45 C 87 39.32871246337891 85.88994598388672 33.82865524291992 83.70066070556641 28.65262985229492 C 81.58542633056641 23.65165710449219 78.55665588378906 19.15968322753906 74.698486328125 15.301513671875 C 70.84031677246094 11.44334411621094 66.34834289550781 8.414573669433594 61.34737396240234 6.299339294433594 C 56.17134475708008 4.110054016113281 50.67128753662109 3 45 3 M 45 0 C 69.85281372070312 0 90 20.14718627929688 90 45 C 90 69.85281372070312 69.85281372070312 90 45 90 C 20.14718627929688 90 0 69.85281372070312 0 45 C 0 20.14718627929688 20.14718627929688 0 45 0 Z" stroke="none" fill="#598475"/>
                </g>
              </g>
            </g>
          </g>
        </g>
      </g>
    </g>
    <g id="_02-digital_economy" data-name="02-digital economy" transform="translate(193 2860)">
      <path id="Trazado_988804" data-name="Trazado 988804" d="M38.827,57.731H22L23.683,51H37.144Z" transform="translate(-3.491 -8.092)" fill="#b2bec3"/>
      <g id="_Group_" data-name="&lt;Group&gt;" transform="translate(15.144 49.639)">
        <rect id="Rectángulo_409782" data-name="Rectángulo 409782" width="24" height="3" rx="1" transform="translate(-0.144 0.207)" fill="#6e7a7c"/>
      </g>
      <rect id="Rectángulo_409783" data-name="Rectángulo 409783" width="52" height="37" transform="translate(1 5.846)" fill="#74b9ff"/>
      <rect id="Rectángulo_409784" data-name="Rectángulo 409784" width="52" height="5" transform="translate(1 37.846)" fill="#dfe6e9"/>
      <path id="Trazado_988805" data-name="Trazado 988805" d="M37.382,51H23.921L23.5,52.683H37.8Z" transform="translate(-3.728 -8.092)" fill="#a1aaad"/>
      <path id="Trazado_988806" data-name="Trazado 988806" d="M35,24H48.461V34.937H35Z" transform="translate(-5.553 -3.808)" fill="#81ecec"/>
      <path id="Trazado_988807" data-name="Trazado 988807" d="M48.461,37v3.365H35V37H48.461Z" transform="translate(-5.553 -5.87)" fill="#ff7675"/>
      <ellipse id="Elipse_11823" data-name="Elipse 11823" cx="5.5" cy="6" rx="5.5" ry="6" transform="translate(13 12.846)" fill="#ffeaa7"/>
      <path id="Trazado_988808" data-name="Trazado 988808" d="M28.461,33v3.365H15V33H28.461Z" transform="translate(-2.38 -5.236)" fill="#ffeaa7"/>
      <path id="Trazado_988809" data-name="Trazado 988809" d="M26.461,37v3.365H13V37H26.461Z" transform="translate(-2.063 -5.87)" fill="#fdcb6e"/>
      <path id="Trazado_988810" data-name="Trazado 988810" d="M26.461,29v3.365H13V29H26.461Z" transform="translate(-2.063 -4.601)" fill="#fdcb6e"/>
      <path id="Trazado_988811" data-name="Trazado 988811" d="M16.572,1V8.572H9l2.524-2.524Z" transform="translate(-1.428 -0.159)" fill="#a1aaad"/>
      <path id="Trazado_988812" data-name="Trazado 988812" d="M16.572,8.572V1H47.7V38.019H9V8.572Zm9.255,22.716h1.683V27.923H25.827V24.558H19.937a5.885,5.885,0,1,0-4.166-1.724,5.889,5.889,0,0,0,4.166,1.724H12.365v3.365h1.683v3.365H12.365v3.365H25.827Zm18.509,3.365v-14.3H30.875v14.3Z" transform="translate(-1.428 -0.159)" fill="#edf1f2"/>
      <path id="Trazado_988813" data-name="Trazado 988813" d="M53,5.048H47.115V.841A.841.841,0,0,0,46.274,0H15.144a.841.841,0,0,0-.595.246l-4.8,4.8H.841A.841.841,0,0,0,0,5.889V42.908a.841.841,0,0,0,.841.841H19.114L17.852,48.8H15.985A1.683,1.683,0,0,0,14.3,50.48v1.683a1.683,1.683,0,0,0,1.683,1.683H37.86a1.683,1.683,0,0,0,1.683-1.683V50.48A1.683,1.683,0,0,0,37.86,48.8H35.993L34.731,43.75H53a.841.841,0,0,0,.841-.841V5.889A.841.841,0,0,0,53,5.048Zm-.841,1.683V37.019H47.115V6.731ZM45.432,37.019H8.413V9.255h6.731a.841.841,0,0,0,.841-.841V1.683H45.432ZM9.6,7.572l4.7-4.7v4.7ZM8.065,6.731,6.977,7.819a.841.841,0,0,0-.247.595V37.019H1.683V6.731Zm29.8,45.432H15.985V50.48H37.86ZM19.587,48.8l1.262-5.048H33L34.259,48.8Zm14.066-6.731H1.683V38.7h50.48v3.365Z"/>
      <path id="Trazado_988814" data-name="Trazado 988814" d="M27.985,29.142h-.841V26.618a.841.841,0,0,0-.841-.841H24.851a6.731,6.731,0,1,0-8.874,0H12.841a.841.841,0,0,0-.841.841v3.365a.841.841,0,0,0,.841.841h.841v1.683h-.841a.841.841,0,0,0-.841.841v3.365a.841.841,0,0,0,.841.841H26.3a.841.841,0,0,0,.841-.841V34.19h.841a.841.841,0,0,0,.841-.841V29.983A.841.841,0,0,0,27.985,29.142Zm-12.62-8.413a5.048,5.048,0,1,1,5.048,5.048A5.048,5.048,0,0,1,15.365,20.728Zm-1.683,6.731H25.461v1.683H13.683Zm11.779,8.413H13.683V34.19H25.461Zm1.683-3.365H15.365V30.824H27.144Z" transform="translate(-1.904 -2.219)"/>
      <path id="Trazado_988815" data-name="Trazado 988815" d="M22.365,17H20.683v.841h-.841a.841.841,0,0,0-.841.841v3.365h3.365v.841H19v1.683h1.683v.841h1.683v-.841h.841a.841.841,0,0,0,.841-.841V21.207a.841.841,0,0,0-.841-.841H20.683v-.841h3.365V17.841H22.365Z" transform="translate(-3.015 -2.697)"/>
      <path id="Trazado_988816" data-name="Trazado 988816" d="M48.3,23H34.841a.841.841,0,0,0-.841.841v14.3a.841.841,0,0,0,.841.841H48.3a.841.841,0,0,0,.841-.841v-14.3A.841.841,0,0,0,48.3,23Zm-.841,1.683v9.255H45.779V28.048H44.1v5.889H42.413V26.365H40.731v7.572H39.048V29.731H37.365v4.207H35.683V24.683ZM35.683,37.3V35.62H47.461V37.3Z" transform="translate(-5.394 -3.649)"/>
      <path id="Trazado_988817" data-name="Trazado 988817" d="M41.619,15.382l-1.929-1.929a.841.841,0,0,0-1.19,0L34.293,17.66l1.19,1.19,3.612-3.612,1.929,1.929a.841.841,0,0,0,1.19,0l5.295-5.295v1.334h1.683V9.841a.819.819,0,0,0-.841-.834V9H44.984v1.683h1.334Z" transform="translate(-5.441 -1.428)"/>
      <rect id="Rectángulo_409785" data-name="Rectángulo 409785" width="19" height="1" transform="translate(18 3.846)"/>
      <rect id="Rectángulo_409786" data-name="Rectángulo 409786" width="14" height="2" transform="translate(18 6.846)"/>
      <rect id="Rectángulo_409787" data-name="Rectángulo 409787" width="3" height="2" transform="translate(34 6.846)"/>
    </g>
  </g>
</svg>
