<svg xmlns="http://www.w3.org/2000/svg" xmlns:xlink="http://www.w3.org/1999/xlink" width="108" height="108" viewBox="0 0 108 108">
  <defs>
    <filter id="Trazado_982547" x="0" y="0" width="108" height="108" filterUnits="userSpaceOnUse">
      <feOffset dy="3" input="SourceAlpha"/>
      <feGaussianBlur stdDeviation="3" result="blur"/>
      <feFlood flood-opacity="0.161"/>
      <feComposite operator="in" in2="blur"/>
      <feComposite in="SourceGraphic"/>
    </filter>
  </defs>
  <g id="Grupo_1155782" data-name="Grupo 1155782" transform="translate(-616 -5227)">
    <g id="Grupo_1154033" data-name="Grupo 1154033" transform="translate(0 1317)">
      <g id="Grupo_1153177" data-name="Grupo 1153177" transform="translate(362 3397)">
        <g id="Grupo_1149598" data-name="Grupo 1149598" transform="translate(80 315)">
          <g id="Grupo_1148770" data-name="Grupo 1148770" transform="translate(-27 -2583)">
            <g id="Grupo_1146954" data-name="Grupo 1146954" transform="translate(-415 -1202)">
              <g transform="matrix(1, 0, 0, 1, 616, 3983)" filter="url(#Trazado_982547)">
                <g id="Trazado_982547-2" data-name="Trazado 982547" transform="translate(9 6)" fill="#f5fdfa">
                  <path d="M 45 88.5 C 39.12687683105469 88.5 33.43022537231445 87.35007476806641 28.06830024719238 85.08217620849609 C 22.88852500915527 82.89131164550781 18.23629951477051 79.75458526611328 14.2408504486084 75.75914764404297 C 10.24541282653809 71.76370239257812 7.108687400817871 67.11147308349609 4.917825222015381 61.93170166015625 C 2.649924993515015 56.56977462768555 1.5 50.87312316894531 1.5 45 C 1.5 39.12687683105469 2.649924993515015 33.43022537231445 4.917825222015381 28.06830024719238 C 7.108687400817871 22.88852500915527 10.24541282653809 18.23629951477051 14.2408504486084 14.2408504486084 C 18.23629951477051 10.24541282653809 22.88852500915527 7.108687400817871 28.06830024719238 4.917825222015381 C 33.43022537231445 2.649924993515015 39.12687683105469 1.5 45 1.5 C 50.87312316894531 1.5 56.56977462768555 2.649924993515015 61.93170166015625 4.917825222015381 C 67.11147308349609 7.108687400817871 71.76370239257812 10.24541282653809 75.75914764404297 14.2408504486084 C 79.75458526611328 18.23629951477051 82.89131164550781 22.88852500915527 85.08217620849609 28.06830024719238 C 87.35007476806641 33.43022537231445 88.5 39.12687683105469 88.5 45 C 88.5 50.87312316894531 87.35007476806641 56.56977462768555 85.08217620849609 61.93170166015625 C 82.89131164550781 67.11147308349609 79.75458526611328 71.76370239257812 75.75914764404297 75.75914764404297 C 71.76370239257812 79.75458526611328 67.11147308349609 82.89131164550781 61.93170166015625 85.08217620849609 C 56.56977462768555 87.35007476806641 50.87312316894531 88.5 45 88.5 Z" stroke="none"/>
                  <path d="M 45 3 C 39.32871246337891 3 33.82865524291992 4.110054016113281 28.65262985229492 6.299339294433594 C 23.65165710449219 8.414573669433594 19.15968322753906 11.44334411621094 15.301513671875 15.301513671875 C 11.44334411621094 19.15968322753906 8.414573669433594 23.65165710449219 6.299339294433594 28.65262985229492 C 4.110054016113281 33.82865524291992 3 39.32871246337891 3 45 C 3 50.67128753662109 4.110054016113281 56.17134475708008 6.299339294433594 61.34737396240234 C 8.414573669433594 66.34834289550781 11.44334411621094 70.84031677246094 15.301513671875 74.698486328125 C 19.15968322753906 78.55665588378906 23.65165710449219 81.58542633056641 28.65262985229492 83.70066070556641 C 33.82865524291992 85.88994598388672 39.32871246337891 87 45 87 C 50.67128753662109 87 56.17134475708008 85.88994598388672 61.34737396240234 83.70066070556641 C 66.34834289550781 81.58542633056641 70.84031677246094 78.55665588378906 74.698486328125 74.698486328125 C 78.55665588378906 70.84031677246094 81.58542633056641 66.34834289550781 83.70066070556641 61.34737396240234 C 85.88994598388672 56.17134475708008 87 50.67128753662109 87 45 C 87 39.32871246337891 85.88994598388672 33.82865524291992 83.70066070556641 28.65262985229492 C 81.58542633056641 23.65165710449219 78.55665588378906 19.15968322753906 74.698486328125 15.301513671875 C 70.84031677246094 11.44334411621094 66.34834289550781 8.414573669433594 61.34737396240234 6.299339294433594 C 56.17134475708008 4.110054016113281 50.67128753662109 3 45 3 M 45 0 C 69.85281372070312 0 90 20.14718627929688 90 45 C 90 69.85281372070312 69.85281372070312 90 45 90 C 20.14718627929688 90 0 69.85281372070312 0 45 C 0 20.14718627929688 20.14718627929688 0 45 0 Z" stroke="none" fill="#598475"/>
                </g>
              </g>
            </g>
          </g>
        </g>
      </g>
    </g>
    <g id="economia-global" transform="translate(625.66 5230.373)">
      <path id="Trazado_989284" data-name="Trazado 989284" d="M52.748,74.711a18.525,18.525,0,0,1-8.564-4.149,21.051,21.051,0,0,1-5.906-9.31l-.733-1.994L38.6,57.5l8.067-1.613,2.213,1.057.267,1.332a8.518,8.518,0,0,0,1.814,3.41,7.568,7.568,0,0,0,1.782,1.385V54.851a19.667,19.667,0,0,1-8.121-3.858A12.986,12.986,0,0,1,40.213,40.92a14.509,14.509,0,0,1,1.362-6.392,12.5,12.5,0,0,1,4.091-4.758,18.622,18.622,0,0,1,7.08-3.023V22.461a28.43,28.43,0,1,0,0,55.4Z" transform="translate(-1.903 -2.286)" fill="#1e81ce"/>
      <path id="Trazado_989285" data-name="Trazado 989285" d="M146.306,86.227c0,.85.149,1.5.381,1.656a6.4,6.4,0,0,0,.618.364v-4A2.193,2.193,0,0,0,146.306,86.227Z" transform="translate(-96.46 -48.333)" fill="#1e81ce"/>
      <path id="Trazado_989286" data-name="Trazado 989286" d="M132.906,52.044l-.028-.024c-1.507-1.315-4.09-2.452-7.9-3.475l-2.021-.451-.975-1.216V37.254L123.6,36.1a11.462,11.462,0,0,1,2.435,1.25,7.2,7.2,0,0,1,3.27,4.821l.148.839,6.3-1.72-.255-.783a14.821,14.821,0,0,0-5.792-7.915,16.011,16.011,0,0,0-6.658-2.525l-1.07-1.231V23.118h-4.142v5.766l-1.06,1.23a16.45,16.45,0,0,0-7.059,2.784,10.065,10.065,0,0,0-3.3,3.825,12.077,12.077,0,0,0-1.114,5.315,10.451,10.451,0,0,0,3.569,8.218,18,18,0,0,0,7.748,3.483l.272.068.943,1.209V66.064l-1.577,1.168c-.187-.059-.358-.117-.517-.175a10.214,10.214,0,0,1-3.935-2.557,10.682,10.682,0,0,1-2.424-4.314l-.206-.67-6.226,1.228.284.84a18.632,18.632,0,0,0,5.195,8.244,16.42,16.42,0,0,0,8.351,3.759l1.052,1.229v4.529h4.145V75.035l1.147-1.237a16.707,16.707,0,0,0,8.873-3,12.6,12.6,0,0,0,3.75-4.393A12.427,12.427,0,0,0,137,60.8a10.824,10.824,0,0,0-4.1-8.753ZM117.843,37.273v7.933l-1.628,1.148a13.1,13.1,0,0,1-2.834-1.359c-.985-.667-1.463-1.876-1.463-3.7a4.7,4.7,0,0,1,2.383-4.222,10.483,10.483,0,0,1,1.917-.952Zm12.2,24.062a5.69,5.69,0,0,1-2.26,4.8l-.012.009a9.3,9.3,0,0,1-4.4,1.612l-1.382-1.221V56.651l1.523-1.188.064.016c4.351.983,6.466,2.9,6.466,5.856Z" transform="translate(-64.536 -3.308)" fill="#ffa12e"/>
      <g id="Grupo_1155781" data-name="Grupo 1155781" transform="translate(16.239 20.927)">
        <path id="Trazado_989287" data-name="Trazado 989287" d="M34.305,168.007c.065-.4.184-.785.212-1.186a5.311,5.311,0,0,0-.59-2.379.735.735,0,0,0-.225-.338.9.9,0,0,0-.621-.044,2.108,2.108,0,0,1-1.973-.936,1.728,1.728,0,0,0-.367-.493c-.525-.391-1.214.219-1.865.282a2.244,2.244,0,0,0,.724,1.613c.376.478.72,1.135.419,1.663a.369.369,0,0,1-.194.181.5.5,0,0,1-.336-.061,4.64,4.64,0,0,0-1.039-.278,28.413,28.413,0,0,0,2.751,4.589c1.093.156,2.158.738,3.245.54.143-.026.311-.1.322-.243a.373.373,0,0,0-.056-.184A4.52,4.52,0,0,1,34.305,168.007Z" transform="translate(-25.896 -126.898)" fill="#00ccb3"/>
        <path id="Trazado_989288" data-name="Trazado 989288" d="M140.559,31.626q.6-.161,1.21-.29V27.963c-1.6.124-3.082-.16-2.977,1.423a2.838,2.838,0,0,0,1.767,2.24Z" transform="translate(-107.163 -27.803)" fill="#00ccb3"/>
        <path id="Trazado_989289" data-name="Trazado 989289" d="M44.794,74.7a21.022,21.022,0,0,1-5.884-9.247c-.038.047-.076.093-.117.136-.872.917-2.373.632-3.587.277a2.487,2.487,0,0,1-1.577-.945c-.31-.547.1-1.452.714-1.31a6.771,6.771,0,0,0-2.619-1.383,2.467,2.467,0,0,0-.249-1.339,3.166,3.166,0,0,0-1.892.253,4.2,4.2,0,0,1-1.614-3.393L30.4,56.387c.332-.458,1.126-.132,1.329.4a4.453,4.453,0,0,1,.047,1.682c-.009.566.223,1.238.776,1.356.9.193,1.284-1.137,2.043-1.664-.639-.688-.512-1.757-.448-2.694s-.114-2.089-.988-2.431c.856-.1,1.336-1.037,1.526-1.878a4.439,4.439,0,0,1,.906-2.376c.279-.263.639-.429.938-.671a2.267,2.267,0,0,0,.825-1.628l2.725-.079a1.167,1.167,0,0,0,.619-.134.564.564,0,0,0,.165-.175q-.029-.444-.033-.9a2.394,2.394,0,0,0-.863-.726,1.182,1.182,0,0,1,.946-1.175h0A13.961,13.961,0,0,1,41.948,39.2c-.137-.236-.269-.474-.39-.718a1.707,1.707,0,0,0-.553-.754c-.538-.331-1.244.063-1.863-.062A3.885,3.885,0,0,1,37.975,37a1.026,1.026,0,0,0-1.247-.02c-.263.279-.209.716-.2,1.1a3.685,3.685,0,0,1-3.6,3.633A4.247,4.247,0,0,0,31.24,38.98c-.4-.288-.913-.61-.885-1.1a1.073,1.073,0,0,1,.257-.57c1.115-1.458,3.319-1.979,3.994-3.685.252-.638.408-1.528,1.09-1.607.525-.06.926.469,1.091.971a3.449,3.449,0,0,0,.606,1.445c.782.79,2.1.123,2.984-.559A3.023,3.023,0,0,1,41.6,30.6a3.777,3.777,0,0,1-.351,4.949A4.248,4.248,0,0,1,43,37.247a12.767,12.767,0,0,1,3.274-3.335q.675-.478,1.394-.892c0-.026.007-.054.008-.082.022-1.094-1.621-1.593-1.725-2.682-.048-.512.261-1.083-.022-1.512-.414-.626-1.366-.127-2.116-.1-1.258.039-2.233-1.462-3.478-1.269-.253.689-1.036.987-1.694,1.313s-1.347.959-1.151,1.666c-1.23.487-1.746-.725-2.189-1.976A28.461,28.461,0,0,0,18.752,50.193q.277.4.543.8a20.226,20.226,0,0,1,2.32,4.459,3.2,3.2,0,0,1,.224.993c.008.4-.117.79-.134,1.189a2.247,2.247,0,0,0,1.167,2.033,8.493,8.493,0,0,0,1.731.5c2.6.731,4.189,3.617,6.817,4.26a1.837,1.837,0,0,0,.935,2.227c.758.462,1.668.624,2.434,1.073a15.206,15.206,0,0,0,2.151,1.441,3.125,3.125,0,0,1,.909.381,1.315,1.315,0,0,1,.178,1.636,3.837,3.837,0,0,1-1.307,1.2c1.252.444,1.685,2.063,2.831,2.734a6.656,6.656,0,0,0,2.345.536A4.09,4.09,0,0,1,44.273,76.8a2.334,2.334,0,0,1,.492,2.489c-.3.639-.963,1.372-.508,1.913a1.255,1.255,0,0,0,.72.335,2.7,2.7,0,0,0,1.374.064.928.928,0,0,0,.689-1.049c-.125-.42-.549-1.022-.125-1.133l2.533,1.137a1.559,1.559,0,0,0,.761.2c.954-.088.878-1.514,1.365-2.352a18.037,18.037,0,0,1-6.781-3.7Z" transform="translate(-18.752 -27.356)" fill="#00ccb3"/>
      </g>
      <path id="Trazado_989290" data-name="Trazado 989290" d="M146.653,93.724l.04.026c.155-.015.461-.077.616-.094V92.2c-.283.031-.717.105-1,.132C146.331,93.257,146.531,93.642,146.653,93.724Z" transform="translate(-96.463 -54.19)"/>
      <path id="Trazado_989291" data-name="Trazado 989291" d="M139.9,161.177v-1.457q-1.78-.19-3.586-.273l.1.314a10.1,10.1,0,0,0,.435,1.163Q138.379,161.01,139.9,161.177Z" transform="translate(-89.1 -103.72)"/>
      <path id="Trazado_989292" data-name="Trazado 989292" d="M71.795,43.208a3.537,3.537,0,0,1,1.581,1.658,12.156,12.156,0,0,1,.907-1.323A5.063,5.063,0,0,0,73.209,42.4a4.525,4.525,0,0,0-.17-5.239l-.959-.153a3.754,3.754,0,0,0-1.63,3.561c-.659.431-1.358.678-1.667.366a1.841,1.841,0,0,1-.311-.75c-.036-.134-.074-.272-.12-.412a1.88,1.88,0,0,0-1.862-1.464c-1.011.115-1.341,1.08-1.56,1.719-.04.117-.079.233-.122.34a4.53,4.53,0,0,1-1.888,1.819,7.9,7.9,0,0,0-2.007,1.692,1.774,1.774,0,0,0-.4.97,1.993,1.993,0,0,0,1.1,1.668l.089.063a3.544,3.544,0,0,1,1.4,2.258l.7.607a4.408,4.408,0,0,0,4.332-4.376c0-.049,0-.1-.005-.149a2.36,2.36,0,0,1,.006-.412.754.754,0,0,1,.342.117c.091.056.187.125.29.2a2.849,2.849,0,0,0,1.112.559,3.016,3.016,0,0,0,1.052-.018,1.286,1.286,0,0,1,.575-.014,1.351,1.351,0,0,1,.266.424l.016.033a12.667,12.667,0,0,0,.62,1.109,12.548,12.548,0,0,1,.5-1.172c.077-.158.158-.313.241-.466-.019-.038-.039-.075-.058-.113l-.016-.032a2.284,2.284,0,0,0-.806-1.017,1.69,1.69,0,0,0-.892-.243q.164-.648.342-1.27Zm.7-3.051a3.219,3.219,0,0,1-.051.362l-.073-.014q.062-.176.124-.348Zm-2.615,3.681c-.089-.055-.182-.122-.278-.191-.118-.085-.24-.173-.376-.256a1.708,1.708,0,0,0-2.153.1,1.923,1.923,0,0,0-.4,1.486c0,.044,0,.087,0,.13a2.809,2.809,0,0,1-.857,2.013,2.951,2.951,0,0,1-1.458.822A4.959,4.959,0,0,0,62.538,45.4l-.1-.068,0,0q.413-.855.868-1.66c.136-.094.275-.187.417-.281A5.644,5.644,0,0,0,66.155,40.9c.053-.133.1-.27.145-.4.025-.072.058-.169.1-.27q.327.134.657.261l.022.079a2.965,2.965,0,0,0,.679,1.388,2.231,2.231,0,0,0,2.543.328Q70.081,43.04,69.884,43.838Z" transform="translate(-33.266 -13.537)"/>
      <path id="Trazado_989293" data-name="Trazado 989293" d="M67.678,95.8H62.747c.018-2.211.116-4.379.29-6.469l1.243-.036a2.28,2.28,0,0,0,.667-.1,15.958,15.958,0,0,1-.107-1.867,16.853,16.853,0,0,1,.194-2.589c-.021,0-.042,0-.064.008a1.9,1.9,0,0,0-1.546,1.92l.353.591a1.854,1.854,0,0,1,.625.492.223.223,0,0,1,.026.083c-.061.007-.143.009-.19.011l-2.725.079-.7.689a1.534,1.534,0,0,1-.558,1.1,3.923,3.923,0,0,1-.347.239,4.08,4.08,0,0,0-.632.469,4.126,4.126,0,0,0-1.029,2.336c-.028.137-.055.273-.085.407-.13.575-.444,1.265-.9,1.317l-.18,1.394c.465.182.576,1.034.53,1.707l-.013.189a4.894,4.894,0,0,0,.245,2.443c-.137.158-.26.321-.375.474-.184.246-.464.616-.58.592a.781.781,0,0,1-.2-.635c0-.135.014-.279.026-.432a3.3,3.3,0,0,0-.123-1.522,1.739,1.739,0,0,0-1.368-1.065,1.291,1.291,0,0,0-1.1.36l-2.318,1.306-.369.611a4.932,4.932,0,0,0,1.9,3.989l.751.079a2.42,2.42,0,0,1,1.065-.231,1.742,1.742,0,0,1,.045.591l.532.77a6.051,6.051,0,0,1,1.518.646,1.731,1.731,0,0,0-.053,1.705,3.157,3.157,0,0,0,2,1.283c1.293.377,2.884.675,4.021-.208-.1-.277-.2-.556-.3-.841l-.681-2.015.852-1.471c-.2-2.239-.313-4.571-.332-6.955h6.3A13.432,13.432,0,0,1,67.678,95.8Zm-8.1-2.315c.032-.144.062-.29.092-.438a3,3,0,0,1,.606-1.571,2.907,2.907,0,0,1,.417-.3,5.14,5.14,0,0,0,.479-.334,2.869,2.869,0,0,0,.328-.312c-.116,1.719-.183,3.482-.2,5.272H58.815a2.642,2.642,0,0,0-.219-.439A3.641,3.641,0,0,0,59.574,93.48Zm-2.943,10.387a3.173,3.173,0,0,0-.324-1.131l-.521-.388a3.905,3.905,0,0,0-1.876.132,3.487,3.487,0,0,1-1.019-2.143l2.045-1.152.13-.116a.324.324,0,0,1,.167.141,2.146,2.146,0,0,1,.031.88c-.014.17-.029.346-.032.529a1.948,1.948,0,0,0,1.35,2.077c1.021.218,1.633-.6,2.04-1.139a3.076,3.076,0,0,1,.567-.638l.117-1.088c-.381-.41-.324-1.2-.269-1.956l.014-.2c.01-.149.013-.293.012-.435H61.3c.021,2.7.161,5.338.412,7.856q-1.475.237-2.922.548l.211-.417a7.523,7.523,0,0,0-2.367-1.365Zm2.963,3.475a5.021,5.021,0,0,1-.682-.239q1.462-.319,2.956-.561.06.509.126,1.011A4.18,4.18,0,0,1,59.594,107.343Z" transform="translate(-26.578 -48.694)"/>
      <path id="Trazado_989294" data-name="Trazado 989294" d="M48.241,75c.836-.274,1.1-1.186,1.275-1.815l.023-.083q.192-.338.379-.7-.776-.2-1.518-.446a6.816,6.816,0,0,0-.278.835c-.094.33-.235.829-.369.841a1.238,1.238,0,0,1-.4-.135l-2.533-1.137-.478-.041a.948.948,0,0,0-.63.5,1.486,1.486,0,0,0,.134,1.272c.039.09.079.184.1.249a.359.359,0,0,1-.2.169,2.206,2.206,0,0,1-1-.079,2.075,2.075,0,0,1-.305-.085,2.953,2.953,0,0,1,.311-.634c.1-.165.2-.336.28-.514a3.031,3.031,0,0,0-.614-3.288,4.776,4.776,0,0,0-2.793-1.379c-.213-.035-.425-.061-.63-.086a3.885,3.885,0,0,1-1.466-.361,4.052,4.052,0,0,1-1.054-1.115,7.484,7.484,0,0,0-.873-1.034,3.166,3.166,0,0,0,.666-.8,2.029,2.029,0,0,0-.355-2.558,2.555,2.555,0,0,0-.883-.42c-.076-.024-.152-.047-.226-.075a4.367,4.367,0,0,1-1.1-.716,8.053,8.053,0,0,0-.938-.672,7.962,7.962,0,0,0-1.3-.574,6.4,6.4,0,0,1-1.118-.492c-.479-.293-.869-.9-.672-1.271L29.2,57.311a8.249,8.249,0,0,1-3.175-1.992,9.846,9.846,0,0,0-3.618-2.262c-.211-.059-.418-.1-.618-.146a3.836,3.836,0,0,1-.969-.292,1.519,1.519,0,0,1-.782-1.362,3.857,3.857,0,0,1,.057-.448,4.226,4.226,0,0,0,.077-.787,3.866,3.866,0,0,0-.265-1.22,20.874,20.874,0,0,0-2.4-4.62c-.126-.189-.256-.378-.385-.566A27.788,27.788,0,0,1,32.516,22.966a2.934,2.934,0,0,0,1.345,1.663,1.865,1.865,0,0,0,1.509-.005l.432-.867c-.058-.211.3-.587.775-.824l.233-.113A3.861,3.861,0,0,0,38.373,21.7a3.665,3.665,0,0,1,.993.5,3.7,3.7,0,0,0,2.081.759,4.892,4.892,0,0,0,.832-.121,2.853,2.853,0,0,1,.657-.088,2.057,2.057,0,0,1-.041.385,2.981,2.981,0,0,0-.053.783,2.868,2.868,0,0,0,1.1,1.763c.324.306.63.594.625.836a1.587,1.587,0,0,1-.411.71l-.068.084a17.845,17.845,0,0,1,1.9-1.117,2.966,2.966,0,0,0-1.051-1.567c-.321-.3-.624-.589-.648-.846a1.9,1.9,0,0,1,.041-.412,1.887,1.887,0,0,0-.181-1.431,1.7,1.7,0,0,0-1.91-.568,3.261,3.261,0,0,1,2.253-1.131c1.008,0,2.024.694,2.985,1.991a3.731,3.731,0,0,0-.008.622,4.9,4.9,0,0,0,.812,2.365q.715-.25,1.461-.448a3.5,3.5,0,0,1-.828-2.014c-.055-.82.056-.909,1.486-1.183l.4-.079V19.484a29.154,29.154,0,1,0,0,56.93V74.046a14.248,14.248,0,0,1-2.668,1.085L48.241,75Zm-.006-54.2-.049.037-.059-.068Zm-7.387-.031c-.119.136-.237.28-.352.429-.112-.065-.226-.135-.342-.207q.346-.12.7-.221Zm-5.184.918A19.207,19.207,0,0,0,34.1,22.9a4.554,4.554,0,0,1-.256-.531Q34.737,22,35.663,21.685ZM29.587,60.86a7.577,7.577,0,0,0,1.373.615,6.788,6.788,0,0,1,1.073.465,6.88,6.88,0,0,1,.769.557,5.506,5.506,0,0,0,1.5.938c.1.037.2.069.3.1a1.462,1.462,0,0,1,.409.167c.143.115.144.463,0,.715a3.284,3.284,0,0,1-1.077.953l.158,1.286a3.049,3.049,0,0,1,1.224,1.176l.049.065a29.78,29.78,0,0,0-3.032,1.156,29.231,29.231,0,0,1-4.816-9.233q.44-.14.885-.274a3.142,3.142,0,0,0,1.189,1.313Zm-1.944-2.6c-.182.056-.365.111-.546.169q-.079-.283-.154-.569a7.548,7.548,0,0,0,.7.4Zm-10.783-12.4c.286.464.546.918.777,1.362h-.845Q16.81,46.539,16.861,45.862Zm-.069,2.811h1.516c.083.205.163.41.234.613a2.633,2.633,0,0,1,.183.766,3.04,3.04,0,0,1-.058.522,5.065,5.065,0,0,0-.075.623,2.974,2.974,0,0,0,1.552,2.7,5.04,5.04,0,0,0,1.345.429c.187.04.363.077.529.124a8.651,8.651,0,0,1,3.071,1.97l.029.024q.261,1.245.6,2.45c-.152.053-.3.105-.456.16-.1-.263-.2-.512-.3-.743a1.25,1.25,0,0,0-1.525-.83l-.072.009a1.382,1.382,0,0,1-1.279-.606c-.021-.033-.041-.066-.061-.1a1.875,1.875,0,0,0-.484-.584,1.809,1.809,0,0,0-1.85-.022,2.331,2.331,0,0,1-.518.164l-.645.6a1.833,1.833,0,0,0,.067.855,27.539,27.539,0,0,1-1.8-9.13ZM19.33,59.545q-.337-.727-.632-1.475a4.894,4.894,0,0,0,.657,1l.045.057a2.233,2.233,0,0,1,.316.519C19.6,59.61,19.468,59.577,19.33,59.545ZM22,64.108a27.775,27.775,0,0,1-1.806-2.857.957.957,0,0,0,.221-.041,1.065,1.065,0,0,0,.6-.513c.229-.4.473-1.261-.48-2.47l-.046-.059a4.879,4.879,0,0,1-.418-.584l.149-.058a2.474,2.474,0,0,1,.464-.151c.026.036.067.1.095.15s.056.094.085.14a2.839,2.839,0,0,0,2.666,1.265l.093-.012.019,0a4.7,4.7,0,0,1,.518,2.006,4.7,4.7,0,0,1-.11.644c-.033.152-.067.309-.094.474a5.255,5.255,0,0,0,.228,2.58,6.441,6.441,0,0,1-1.258-.273c-.3-.086-.611-.173-.929-.239Zm1.472,1.871a4.525,4.525,0,0,0,.884.1,3.272,3.272,0,0,0,.59-.053,1.017,1.017,0,0,0,.914-.9,1.056,1.056,0,0,0-.129-.559,3.79,3.79,0,0,1-.342-2.284c.021-.129.05-.262.081-.4a5.865,5.865,0,0,0,.139-.85,3.579,3.579,0,0,0-.005-.55q.265-.1.532-.19a31.67,31.67,0,0,0,3.958,8.178q.437.637.9,1.229-1.06.537-2.079,1.159a27.934,27.934,0,0,1-5.441-4.87Zm6.807,5.743q.814-.47,1.656-.885a20.743,20.743,0,0,0,3.73,3.375,27.587,27.587,0,0,1-5.386-2.49Zm3.035-1.517a28.335,28.335,0,0,1,3.125-1.124,3.131,3.131,0,0,0,.359.249,3.676,3.676,0,0,0,1.11.408,17.471,17.471,0,0,0,2.943,5.39,16.612,16.612,0,0,1-7.536-4.924Zm8.407,2.371c-.057.12-.137.257-.221.4-.066.112-.14.241-.211.38a17.594,17.594,0,0,1-1.735-3.372,3.307,3.307,0,0,1,1.8.9,1.624,1.624,0,0,1,.37,1.691Zm2.946,3.071a1.621,1.621,0,0,0,.729-1.445l1.145.514a3.214,3.214,0,0,1-1.874.93Z" transform="translate(0 -0.122)"/>
      <path id="Trazado_989295" data-name="Trazado 989295" d="M129.7,47.8c-1.638-1.43-4.363-2.642-8.359-3.715l-2.16-.482V33.663a10.258,10.258,0,0,1,2.361,1.189,6.076,6.076,0,0,1,2.806,4.107l.355,2.013,8.554-2.334-.609-1.867a15.9,15.9,0,0,0-6.22-8.482,17.085,17.085,0,0,0-7.248-2.718V18.627h-6.317v6.988a17.53,17.53,0,0,0-7.661,2.993c-3.233,2.291-4.872,5.664-4.872,10.026a11.493,11.493,0,0,0,3.938,9.034,19.06,19.06,0,0,0,8.221,3.725l.373.094V62.841c-.214-.065-.425-.134-.632-.211a9.136,9.136,0,0,1-3.52-2.285,9.614,9.614,0,0,1-2.171-3.883l-.494-1.61-8.4,1.658.681,2.015c2.479,7.356,7.362,11.63,14.542,12.75v5.752h6.315V71.489a17.841,17.841,0,0,0,9.59-3.228A13.024,13.024,0,0,0,134.2,57.393,11.874,11.874,0,0,0,129.7,47.8ZM127.9,67.105a16.454,16.454,0,0,1-8.823,2.939l-1.34,1.445v4.089h-3.418v-4.3l-1.226-1.432a16.112,16.112,0,0,1-8.3-3.694,18.278,18.278,0,0,1-5.09-8.088l-.152-.448,5.5-1.085.11.358a11.042,11.042,0,0,0,2.506,4.458,10.573,10.573,0,0,0,4.072,2.647c.214.079.446.155.709.236l1.871-1.386V51.488l-1.1-1.406-.373-.094-.022-.005a17.67,17.67,0,0,1-7.6-3.4,10.1,10.1,0,0,1-3.445-7.945,11.72,11.72,0,0,1,1.078-5.157,9.707,9.707,0,0,1,3.183-3.688,16.133,16.133,0,0,1,7.037-2.742l1.236-1.433V20.076h3.419v5.495l1.248,1.435a15.684,15.684,0,0,1,6.641,2.486,14.47,14.47,0,0,1,5.65,7.728l.137.422-5.554,1.515-.079-.448a7.554,7.554,0,0,0-3.425-5.058,11.778,11.778,0,0,0-2.693-1.355l-1.925,1.368V43.6l1.133,1.414L121,45.49c3.752,1.008,6.288,2.12,7.752,3.4l.035.03a10.476,10.476,0,0,1,3.967,8.475,12.07,12.07,0,0,1-1.212,5.446A12.241,12.241,0,0,1,127.9,67.105Z" transform="translate(-60.62 0)"/>
      <path id="Trazado_989296" data-name="Trazado 989296" d="M138.237,71.634a5.041,5.041,0,0,0-2.552,4.528c0,1.95.531,3.257,1.622,4a13.854,13.854,0,0,0,3.091,1.464l1.936-1.365V71.949L140.4,70.583A10.841,10.841,0,0,0,138.237,71.634Zm2.648,8.622a12.634,12.634,0,0,1-2.766-1.3c-.663-.448-.986-1.364-.986-2.8a3.6,3.6,0,0,1,1.878-3.3,9.35,9.35,0,0,1,1.873-.909Z" transform="translate(-88.64 -38.268)"/>
      <path id="Trazado_989297" data-name="Trazado 989297" d="M175.928,144.087l-.228-.057-1.8,1.406v10.224l1.628,1.438a9.762,9.762,0,0,0,4.734-1.7l.013-.01a6.032,6.032,0,0,0,2.4-5.088C182.676,147.143,180.468,145.112,175.928,144.087Zm3.46,10.15a8.37,8.37,0,0,1-4.04,1.423V145.435l.244.061c5.635,1.267,5.635,3.833,5.635,4.8a4.613,4.613,0,0,1-1.84,3.942Z" transform="translate(-116.786 -92.365)"/>
    </g>
  </g>
</svg>
