<svg xmlns="http://www.w3.org/2000/svg" xmlns:xlink="http://www.w3.org/1999/xlink" width="108" height="108" viewBox="0 0 108 108">
  <defs>
    <filter id="Trazado_982547" x="0" y="0" width="108" height="108" filterUnits="userSpaceOnUse">
      <feOffset dy="3" input="SourceAlpha"/>
      <feGaussianBlur stdDeviation="3" result="blur"/>
      <feFlood flood-opacity="0.161"/>
      <feComposite operator="in" in2="blur"/>
      <feComposite in="SourceGraphic"/>
    </filter>
  </defs>
  <g id="Grupo_1156785" data-name="Grupo 1156785" transform="translate(-721 -7799)">
    <g id="Grupo_1154443" data-name="Grupo 1154443" transform="translate(105 3889)">
      <g id="Grupo_1153177" data-name="Grupo 1153177" transform="translate(362 3397)">
        <g id="Grupo_1149598" data-name="Grupo 1149598" transform="translate(80 315)">
          <g id="Grupo_1148770" data-name="Grupo 1148770" transform="translate(-27 -2583)">
            <g id="Grupo_1146954" data-name="Grupo 1146954" transform="translate(-415 -1202)">
              <g transform="matrix(1, 0, 0, 1, 616, 3983)" filter="url(#Trazado_982547)">
                <g id="Trazado_982547-2" data-name="Trazado 982547" transform="translate(9 6)" fill="#fdf4ee">
                  <path d="M 45 88.5 C 39.12687683105469 88.5 33.43022537231445 87.35007476806641 28.06830024719238 85.08217620849609 C 22.88852500915527 82.89131164550781 18.23629951477051 79.75458526611328 14.2408504486084 75.75914764404297 C 10.24541282653809 71.76370239257812 7.108687400817871 67.11147308349609 4.917825222015381 61.93170166015625 C 2.649924993515015 56.56977462768555 1.5 50.87312316894531 1.5 45 C 1.5 39.12687683105469 2.649924993515015 33.43022537231445 4.917825222015381 28.06830024719238 C 7.108687400817871 22.88852500915527 10.24541282653809 18.23629951477051 14.2408504486084 14.2408504486084 C 18.23629951477051 10.24541282653809 22.88852500915527 7.108687400817871 28.06830024719238 4.917825222015381 C 33.43022537231445 2.649924993515015 39.12687683105469 1.5 45 1.5 C 50.87312316894531 1.5 56.56977462768555 2.649924993515015 61.93170166015625 4.917825222015381 C 67.11147308349609 7.108687400817871 71.76370239257812 10.24541282653809 75.75914764404297 14.2408504486084 C 79.75458526611328 18.23629951477051 82.89131164550781 22.88852500915527 85.08217620849609 28.06830024719238 C 87.35007476806641 33.43022537231445 88.5 39.12687683105469 88.5 45 C 88.5 50.87312316894531 87.35007476806641 56.56977462768555 85.08217620849609 61.93170166015625 C 82.89131164550781 67.11147308349609 79.75458526611328 71.76370239257812 75.75914764404297 75.75914764404297 C 71.76370239257812 79.75458526611328 67.11147308349609 82.89131164550781 61.93170166015625 85.08217620849609 C 56.56977462768555 87.35007476806641 50.87312316894531 88.5 45 88.5 Z" stroke="none"/>
                  <path d="M 45 3 C 39.32871246337891 3 33.82865524291992 4.110054016113281 28.65262985229492 6.299339294433594 C 23.65165710449219 8.414573669433594 19.15968322753906 11.44334411621094 15.301513671875 15.301513671875 C 11.44334411621094 19.15968322753906 8.414573669433594 23.65165710449219 6.299339294433594 28.65262985229492 C 4.110054016113281 33.82865524291992 3 39.32871246337891 3 45 C 3 50.67128753662109 4.110054016113281 56.17134475708008 6.299339294433594 61.34737396240234 C 8.414573669433594 66.34834289550781 11.44334411621094 70.84031677246094 15.301513671875 74.698486328125 C 19.15968322753906 78.55665588378906 23.65165710449219 81.58542633056641 28.65262985229492 83.70066070556641 C 33.82865524291992 85.88994598388672 39.32871246337891 87 45 87 C 50.67128753662109 87 56.17134475708008 85.88994598388672 61.34737396240234 83.70066070556641 C 66.34834289550781 81.58542633056641 70.84031677246094 78.55665588378906 74.698486328125 74.698486328125 C 78.55665588378906 70.84031677246094 81.58542633056641 66.34834289550781 83.70066070556641 61.34737396240234 C 85.88994598388672 56.17134475708008 87 50.67128753662109 87 45 C 87 39.32871246337891 85.88994598388672 33.82865524291992 83.70066070556641 28.65262985229492 C 81.58542633056641 23.65165710449219 78.55665588378906 19.15968322753906 74.698486328125 15.301513671875 C 70.84031677246094 11.44334411621094 66.34834289550781 8.414573669433594 61.34737396240234 6.299339294433594 C 56.17134475708008 4.110054016113281 50.67128753662109 3 45 3 M 45 0 C 69.85281372070312 0 90 20.14718627929688 90 45 C 90 69.85281372070312 69.85281372070312 90 45 90 C 20.14718627929688 90 0 69.85281372070312 0 45 C 0 20.14718627929688 20.14718627929688 0 45 0 Z" stroke="none" fill="#ee9865"/>
                </g>
              </g>
            </g>
          </g>
        </g>
      </g>
    </g>
    <g id="dolar" transform="translate(746 7821)">
      <g id="Grupo_1156783" data-name="Grupo 1156783" transform="translate(0.853 0.845)">
        <g id="Grupo_1156780" data-name="Grupo 1156780" transform="translate(0 15.929)">
          <g id="Grupo_1156779" data-name="Grupo 1156779">
            <g id="Grupo_1156777" data-name="Grupo 1156777">
              <path id="Trazado_990337" data-name="Trazado 990337" d="M33.275,188.046H22.887a31.6,31.6,0,0,1,0-5.666A100.791,100.791,0,0,1,7.5,168.767c.663-11,.67-11.106.019-21.062-.007-.1-.013-.195-.019-.294,6.156,0,6.16,3.87,6.16,16.7l3.154,2.878h0c3.665-2.738,6.657.6,16.4,9.074A75.853,75.853,0,0,1,33.275,188.046Z" transform="translate(-7.5 -147.412)" fill="#ffe6c7"/>
              <path id="Trazado_990338" data-name="Trazado 990338" d="M94.149,333.2H91a89.144,89.144,0,0,0-.29-10.649c-6.169-6.961-9.938-9.449-14.52-9.012l1.5-1.4h0c3.665-2.738,6.657.6,16.4,9.074A75.855,75.855,0,0,1,94.149,333.2Z" transform="translate(-68.374 -292.569)" fill="#ffd5b0"/>
              <path id="Trazado_990339" data-name="Trazado 990339" d="M43,195.119c.36-6.644,1.474-15.321-4.813-15.321H36v15.3Z" transform="translate(-32.759 -176.113)" fill="#ffe6c7"/>
              <path id="Trazado_990340" data-name="Trazado 990340" d="M16.814,166.988c-7.127.533-6.086-4.761-6.086-8.255,0-6.673-.736-9.957-3.209-11.028-.007-.1-.013-.195-.019-.294,6.156,0,6.16,3.87,6.16,16.7Z" transform="translate(-7.5 -147.412)" fill="#ffd5b0"/>
            </g>
            <g id="Grupo_1156778" data-name="Grupo 1156778" transform="translate(30.576)">
              <path id="Trazado_990341" data-name="Trazado 990341" d="M276.4,188.046h10.388a31.6,31.6,0,0,0,0-5.666,100.8,100.8,0,0,0,15.387-13.613c-.663-11-.67-11.106-.019-21.062.007-.1.013-.195.019-.294-6.156,0-6.16,3.87-6.16,16.7l-3.154,2.878h0c-3.665-2.738-6.657.6-16.4,9.074A75.857,75.857,0,0,0,276.4,188.046Z" transform="translate(-276.193 -147.412)" fill="#ffe6c7"/>
              <path id="Trazado_990342" data-name="Trazado 990342" d="M276.4,333.2h3.149a89.143,89.143,0,0,1,.29-10.649c6.169-6.961,9.938-9.449,14.52-9.012l-1.5-1.4h0c-3.665-2.738-6.657.6-16.4,9.074A75.859,75.859,0,0,0,276.4,333.2Z" transform="translate(-276.193 -292.569)" fill="#ffd5b0"/>
              <path id="Trazado_990343" data-name="Trazado 990343" d="M412.065,195.119c-.36-6.644-1.474-15.321,4.813-15.321h2.187v15.3Z" transform="translate(-396.329 -176.113)" fill="#ffe6c7"/>
              <path id="Trazado_990344" data-name="Trazado 990344" d="M422.647,166.988c7.127.533,6.086-4.761,6.086-8.255,0-6.673.736-9.957,3.209-11.028.007-.1.013-.195.019-.294-6.156,0-6.16,3.87-6.16,16.7Z" transform="translate(-405.982 -147.412)" fill="#ffd5b0"/>
            </g>
          </g>
        </g>
        <g id="Grupo_1156782" data-name="Grupo 1156782" transform="translate(12.649)">
          <g id="Grupo_1156781" data-name="Grupo 1156781">
            <path id="Trazado_990345" data-name="Trazado 990345" d="M150.025,23.108a15.682,15.682,0,0,1-15.683,15.68q-.719,0-1.422-.064a15.681,15.681,0,0,1,0-31.233q.7-.063,1.422-.064A15.682,15.682,0,0,1,150.025,23.108Z" transform="translate(-118.659 -7.427)" fill="#fff18d"/>
            <path id="Trazado_990346" data-name="Trazado 990346" d="M261.084,23.108A15.682,15.682,0,0,1,245.4,38.787q-.719,0-1.422-.064a15.681,15.681,0,0,0,0-31.233q.7-.063,1.422-.064A15.682,15.682,0,0,1,261.084,23.108Z" transform="translate(-229.718 -7.427)" fill="#ffd366"/>
          </g>
          <path id="Trazado_990347" data-name="Trazado 990347" d="M182.057,59.859A10.969,10.969,0,1,1,171.093,48.9,10.963,10.963,0,0,1,182.057,59.859Z" transform="translate(-155.41 -44.178)" fill="#ffd366"/>
          <path id="Trazado_990348" data-name="Trazado 990348" d="M254.593,59.859A10.969,10.969,0,0,1,241.979,70.7a10.962,10.962,0,0,0,0-21.675,10.969,10.969,0,0,1,12.614,10.838Z" transform="translate(-227.946 -44.178)" fill="#ffaf5f"/>
        </g>
      </g>
      <g id="Grupo_1156784" data-name="Grupo 1156784" transform="translate(0 0)">
        <path id="Trazado_990349" data-name="Trazado 990349" d="M365.3,426.668c-1.058.823-2.12,1.61-3.158,2.341a.854.854,0,0,0-.358.782,30.761,30.761,0,0,1,0,5.48.853.853,0,0,0,.754.943.875.875,0,0,0,.1.005.854.854,0,0,0,.847-.759,31.17,31.17,0,0,0,.043-5.339c.932-.665,1.88-1.372,2.823-2.106a.853.853,0,0,0-1.048-1.347Z" transform="translate(-320.608 -377.957)"/>
        <path id="Trazado_990350" data-name="Trazado 990350" d="M296.369,162.493a192.765,192.765,0,0,1,0-21.221.853.853,0,0,0-.852-.909c-3.3,0-5.14,1.115-6.064,3.708a4.99,4.99,0,0,0-3.307,1.536c-2.488,2.646-2.151,8.135-1.853,12.977q.013.216.026.431a5.142,5.142,0,0,0-2.755.428c-2.3.954-4.99,3.316-9.447,7.229-.906.8-1.842,1.618-2.872,2.513a.854.854,0,0,0-.289.558,75.789,75.789,0,0,0-.066,12.121.854.854,0,0,0,.85.789l.066,0a.854.854,0,0,0,.786-.916,76.631,76.631,0,0,1,.032-11.486c.931-.811,1.788-1.563,2.619-2.292,8.316-7.3,10.2-8.786,13.228-5.838-1.184,1.052-3.835,3.377-6.841,5.814a.853.853,0,0,0,1.075,1.326c4.092-3.317,7.534-6.431,7.568-6.462a.853.853,0,0,0,.057-1.208q-.423-.463-.832-.842l2.433-2.221a.853.853,0,0,0,.278-.63c0-6.291,0-10.446.736-12.9a3.581,3.581,0,0,1,3.667-2.893,196.52,196.52,0,0,0,.031,20.134,102.125,102.125,0,0,1-8.718,8.32.853.853,0,0,0,1.1,1.3,101.337,101.337,0,0,0,9.125-8.746.853.853,0,0,0,.214-.619Zm-7.865-4.976-2.379,2.172-.056-.034q-.034-.58-.071-1.176c-.277-4.5-.59-9.594,1.393-11.7a3.122,3.122,0,0,1,1.6-.909C288.515,148.5,288.5,152.268,288.5,157.517Z" transform="translate(-238.109 -124.391)"/>
        <path id="Trazado_990351" data-name="Trazado 990351" d="M180.569,351.16c-1.029-.895-1.966-1.717-2.872-2.512-1.127-.99-2.192-1.924-3.141-2.738a.854.854,0,0,0-1.111,1.3c.942.807,1.954,1.7,3.126,2.725.831.729,1.687,1.481,2.618,2.292a76.635,76.635,0,0,1,.032,11.486.854.854,0,0,0,.786.916l.066,0a.854.854,0,0,0,.85-.789,75.761,75.761,0,0,0-.066-12.121A.854.854,0,0,0,180.569,351.16Z" transform="translate(-153.445 -306.365)"/>
        <path id="Trazado_990352" data-name="Trazado 990352" d="M17.751,161.209c-2.3-1.7-4.083-2.432-5.73-2.187l.03-.478c.3-4.83.64-10.3-1.839-12.942a4.973,4.973,0,0,0-3.294-1.532c-.924-2.593-2.764-3.709-6.064-3.709a.853.853,0,0,0-.853.853c0,.019,0,.038,0,.057.667,10.178.667,10.178,0,21.219a.854.854,0,0,0,.214.619A102.883,102.883,0,0,0,15.35,176.554a31.173,31.173,0,0,0,.043,5.339.854.854,0,0,0,.847.759.873.873,0,0,0,.1-.005.853.853,0,0,0,.754-.943,30.828,30.828,0,0,1,0-5.48.854.854,0,0,0-.358-.782A101.283,101.283,0,0,1,1.727,162.236c.631-10.446.644-10.882.04-20.133A3.578,3.578,0,0,1,5.425,145c.736,2.451.736,6.607.736,12.9a.854.854,0,0,0,.278.63l2.432,2.221q-.409.38-.831.843a.853.853,0,0,0,.057,1.208c.034.031,3.476,3.145,7.568,6.462a.853.853,0,1,0,1.075-1.326c-3-2.436-5.655-4.76-6.84-5.813a4.107,4.107,0,0,1,2.712-1.434c1.04-.025,2.312.562,4.127,1.9a.854.854,0,0,0,1.013-1.374Zm-7.4-2.771q-.039.623-.075,1.232l-.028.017-2.377-2.17c0-5.248-.011-9.014-.488-11.648a3.1,3.1,0,0,1,1.589.9C10.941,148.871,10.625,153.954,10.347,158.438Z" transform="translate(0 -124.39)"/>
        <path id="Trazado_990353" data-name="Trazado 990353" d="M155.021,56.909a.853.853,0,0,0-1.591.618,11.815,11.815,0,1,0-.8-4.272.853.853,0,0,0,1.707,0,10.079,10.079,0,1,1,.681,3.654Z" transform="translate(-135.264 -36.729)"/>
        <path id="Trazado_990354" data-name="Trazado 990354" d="M144.232,16.526a16.4,16.4,0,0,0-3.125-9.67.853.853,0,1,0-1.383,1A14.833,14.833,0,1,1,127.7,1.707a14.855,14.855,0,0,1,9.464,3.41A.854.854,0,0,0,138.25,3.8a16.524,16.524,0,1,0,5.983,12.723Z" transform="translate(-98.51 0)"/>
        <path id="Trazado_990355" data-name="Trazado 990355" d="M229.978,88.255a1.7,1.7,0,0,1-1.7-1.694.853.853,0,1,0-1.707,0,3.408,3.408,0,0,0,2.55,3.293v1.166a.853.853,0,0,0,1.707,0V89.853a3.4,3.4,0,0,0-.853-6.694,1.694,1.694,0,1,1,1.7-1.694.853.853,0,1,0,1.707,0,3.408,3.408,0,0,0-2.55-3.293V77.005a.853.853,0,0,0-1.707,0v1.166a3.4,3.4,0,0,0,.853,6.694,1.694,1.694,0,1,1,0,3.389Z" transform="translate(-200.792 -67.486)"/>
      </g>
    </g>
  </g>
</svg>
