<svg xmlns="http://www.w3.org/2000/svg" xmlns:xlink="http://www.w3.org/1999/xlink" width="108" height="108" viewBox="0 0 108 108">
  <defs>
    <filter id="Trazado_982547" x="0" y="0" width="108" height="108" filterUnits="userSpaceOnUse">
      <feOffset dy="3" input="SourceAlpha"/>
      <feGaussianBlur stdDeviation="3" result="blur"/>
      <feFlood flood-opacity="0.161"/>
      <feComposite operator="in" in2="blur"/>
      <feComposite in="SourceGraphic"/>
    </filter>
  </defs>
  <g id="Grupo_1156776" data-name="Grupo 1156776" transform="translate(-616 -2588)">
    <g id="Grupo_1154417" data-name="Grupo 1154417" transform="translate(0 -1322)">
      <g id="Grupo_1153177" data-name="Grupo 1153177" transform="translate(362 3397)">
        <g id="Grupo_1149598" data-name="Grupo 1149598" transform="translate(80 315)">
          <g id="Grupo_1148770" data-name="Grupo 1148770" transform="translate(-27 -2583)">
            <g id="Grupo_1146954" data-name="Grupo 1146954" transform="translate(-415 -1202)">
              <g transform="matrix(1, 0, 0, 1, 616, 3983)" filter="url(#Trazado_982547)">
                <g id="Trazado_982547-2" data-name="Trazado 982547" transform="translate(9 6)" fill="#f5fdfa">
                  <path d="M 45 88.5 C 39.12687683105469 88.5 33.43022537231445 87.35007476806641 28.06830024719238 85.08217620849609 C 22.88852500915527 82.89131164550781 18.23629951477051 79.75458526611328 14.2408504486084 75.75914764404297 C 10.24541282653809 71.76370239257812 7.108687400817871 67.11147308349609 4.917825222015381 61.93170166015625 C 2.649924993515015 56.56977462768555 1.5 50.87312316894531 1.5 45 C 1.5 39.12687683105469 2.649924993515015 33.43022537231445 4.917825222015381 28.06830024719238 C 7.108687400817871 22.88852500915527 10.24541282653809 18.23629951477051 14.2408504486084 14.2408504486084 C 18.23629951477051 10.24541282653809 22.88852500915527 7.108687400817871 28.06830024719238 4.917825222015381 C 33.43022537231445 2.649924993515015 39.12687683105469 1.5 45 1.5 C 50.87312316894531 1.5 56.56977462768555 2.649924993515015 61.93170166015625 4.917825222015381 C 67.11147308349609 7.108687400817871 71.76370239257812 10.24541282653809 75.75914764404297 14.2408504486084 C 79.75458526611328 18.23629951477051 82.89131164550781 22.88852500915527 85.08217620849609 28.06830024719238 C 87.35007476806641 33.43022537231445 88.5 39.12687683105469 88.5 45 C 88.5 50.87312316894531 87.35007476806641 56.56977462768555 85.08217620849609 61.93170166015625 C 82.89131164550781 67.11147308349609 79.75458526611328 71.76370239257812 75.75914764404297 75.75914764404297 C 71.76370239257812 79.75458526611328 67.11147308349609 82.89131164550781 61.93170166015625 85.08217620849609 C 56.56977462768555 87.35007476806641 50.87312316894531 88.5 45 88.5 Z" stroke="none"/>
                  <path d="M 45 3 C 39.32871246337891 3 33.82865524291992 4.110054016113281 28.65262985229492 6.299339294433594 C 23.65165710449219 8.414573669433594 19.15968322753906 11.44334411621094 15.301513671875 15.301513671875 C 11.44334411621094 19.15968322753906 8.414573669433594 23.65165710449219 6.299339294433594 28.65262985229492 C 4.110054016113281 33.82865524291992 3 39.32871246337891 3 45 C 3 50.67128753662109 4.110054016113281 56.17134475708008 6.299339294433594 61.34737396240234 C 8.414573669433594 66.34834289550781 11.44334411621094 70.84031677246094 15.301513671875 74.698486328125 C 19.15968322753906 78.55665588378906 23.65165710449219 81.58542633056641 28.65262985229492 83.70066070556641 C 33.82865524291992 85.88994598388672 39.32871246337891 87 45 87 C 50.67128753662109 87 56.17134475708008 85.88994598388672 61.34737396240234 83.70066070556641 C 66.34834289550781 81.58542633056641 70.84031677246094 78.55665588378906 74.698486328125 74.698486328125 C 78.55665588378906 70.84031677246094 81.58542633056641 66.34834289550781 83.70066070556641 61.34737396240234 C 85.88994598388672 56.17134475708008 87 50.67128753662109 87 45 C 87 39.32871246337891 85.88994598388672 33.82865524291992 83.70066070556641 28.65262985229492 C 81.58542633056641 23.65165710449219 78.55665588378906 19.15968322753906 74.698486328125 15.301513671875 C 70.84031677246094 11.44334411621094 66.34834289550781 8.414573669433594 61.34737396240234 6.299339294433594 C 56.17134475708008 4.110054016113281 50.67128753662109 3 45 3 M 45 0 C 69.85281372070312 0 90 20.14718627929688 90 45 C 90 69.85281372070312 69.85281372070312 90 45 90 C 20.14718627929688 90 0 69.85281372070312 0 45 C 0 20.14718627929688 20.14718627929688 0 45 0 Z" stroke="none" fill="#598475"/>
                </g>
              </g>
            </g>
          </g>
        </g>
      </g>
    </g>
    <g id="negocios-internacionales" transform="translate(643 2612)">
      <g id="Grupo_1156774" data-name="Grupo 1156774" transform="translate(0.868 0.868)">
        <g id="Grupo_1156762" data-name="Grupo 1156762" transform="translate(41.651 18.222)">
          <path id="Trazado_990321" data-name="Trazado 990321" d="M57.677,45.429l-4.339,6.942L49,45.429h1.735V22h5.206V45.429Z" transform="translate(-49 -22)" fill="#ff826e"/>
        </g>
        <g id="Grupo_1156763" data-name="Grupo 1156763" transform="translate(1.735 3.471)">
          <path id="Trazado_990322" data-name="Trazado 990322" d="M7.339,5l4.339,6.942H9.942V35.371H4.735V11.942H3Z" transform="translate(-3 -5)" fill="#ff826e"/>
        </g>
        <g id="Grupo_1156764" data-name="Grupo 1156764" transform="translate(43.387 1.735)">
          <path id="Trazado_990323" data-name="Trazado 990323" d="M59.677,3.868V16.016a.87.87,0,0,1-.868.868H51.868A.87.87,0,0,1,51,16.016V3.868A.87.87,0,0,1,51.868,3H58.81A.87.87,0,0,1,59.677,3.868Z" transform="translate(-51 -3)" fill="#e6e9ed"/>
        </g>
        <g id="Grupo_1156765" data-name="Grupo 1156765" transform="translate(0 36.445)">
          <path id="Trazado_990324" data-name="Trazado 990324" d="M9.677,55.148v.868a.87.87,0,0,1-.868.868H1.868A.87.87,0,0,1,1,56.016V43.868A.87.87,0,0,1,1.868,43H8.81a.87.87,0,0,1,.868.868V55.148Z" transform="translate(-1 -43)" fill="#fcd770"/>
        </g>
        <g id="Grupo_1156766" data-name="Grupo 1156766" transform="translate(8.677 34.709)">
          <path id="Trazado_990325" data-name="Trazado 990325" d="M33.561,51.413A1.748,1.748,0,0,1,35.3,53.148a1.741,1.741,0,0,1-1.735,1.735H30.09a1.741,1.741,0,0,1,1.735,1.735,1.748,1.748,0,0,1-1.735,1.735h-9.2A15.843,15.843,0,0,1,11,54.884V44.471A15.843,15.843,0,0,1,20.892,41h6.595a.87.87,0,0,1,.868.868,2.6,2.6,0,0,1-2.6,2.6h7.81A1.748,1.748,0,0,1,35.3,46.206a1.741,1.741,0,0,1-1.735,1.735H35.3a1.748,1.748,0,0,1,1.735,1.735A1.741,1.741,0,0,1,35.3,51.413Z" transform="translate(-11 -41)" fill="#f0d0b4"/>
        </g>
        <g id="Grupo_1156767" data-name="Grupo 1156767" transform="translate(17.355 6.942)">
          <path id="Trazado_990326" data-name="Trazado 990326" d="M24.471,9h5.206a12.068,12.068,0,0,0-8.061,3.063A1.755,1.755,0,0,1,21,10.735,1.748,1.748,0,0,1,22.735,9Z" transform="translate(-21 -9)" fill="#f0d0b4"/>
        </g>
        <g id="Grupo_1156768" data-name="Grupo 1156768" transform="translate(19.09 3.471)">
          <path id="Trazado_990327" data-name="Trazado 990327" d="M37.6,6.432V6.44c.052.1.1.191.165.286a5.836,5.836,0,0,0-2.326,3.054V9.79a12.107,12.107,0,0,0-5.5-1.319H24.735A1.741,1.741,0,0,1,23,6.735,1.748,1.748,0,0,1,24.735,5H35.287A2.587,2.587,0,0,1,37.6,6.432Z" transform="translate(-23 -5)" fill="#f0d0b4"/>
        </g>
        <g id="Grupo_1156769" data-name="Grupo 1156769" transform="translate(26.032)">
          <path id="Trazado_990328" data-name="Trazado 990328" d="M38.827,6.2c-.061-.1-.113-.191-.165-.286V5.9a2.587,2.587,0,0,0-2.317-1.432H33.6a2.6,2.6,0,0,1-2.6-2.6A.87.87,0,0,1,31.868,1h6.595a15.843,15.843,0,0,1,9.892,3.471V14.884a15.687,15.687,0,0,1-5.441,2.829A12.133,12.133,0,0,0,36.5,9.261V9.252A5.836,5.836,0,0,1,38.827,6.2Z" transform="translate(-31 -1)" fill="#f0d0b4"/>
        </g>
        <g id="Grupo_1156770" data-name="Grupo 1156770" transform="translate(23.429 34.709)">
          <path id="Trazado_990329" data-name="Trazado 990329" d="M30.6,41.868A.87.87,0,0,0,29.735,41H35.81v3.471H28A2.6,2.6,0,0,0,30.6,41.868Z" transform="translate(-28 -41)" fill="#aab2bd"/>
        </g>
        <g id="Grupo_1156771" data-name="Grupo 1156771" transform="translate(20.826 31.238)">
          <path id="Trazado_990330" data-name="Trazado 990330" d="M35.413,37v3.471H25V37Z" transform="translate(-25 -37)" fill="#ccd1d9"/>
        </g>
        <g id="Grupo_1156772" data-name="Grupo 1156772" transform="translate(13.884 6.942)">
          <path id="Trazado_990331" data-name="Trazado 990331" d="M41.062,18.771a11.943,11.943,0,0,1,.234,2.378A14.086,14.086,0,0,1,34.676,33.1l-.321.2H23.942l-.321-.2A14.07,14.07,0,0,1,17,21.148a12.149,12.149,0,0,1,24.062-2.378Z" transform="translate(-17 -9)" fill="#ffeaa7"/>
        </g>
        <g id="Grupo_1156773" data-name="Grupo 1156773" transform="translate(17.355 10.413)">
          <circle id="Elipse_11868" data-name="Elipse 11868" cx="9" cy="9" r="9" transform="translate(-0.222 -0.281)" fill="#69d6f4"/>
        </g>
      </g>
      <g id="Grupo_1156775" data-name="Grupo 1156775">
        <path id="Trazado_990332" data-name="Trazado 990332" d="M52.064,1.735H45.122a1.736,1.736,0,0,0-1.578,1.022A16.772,16.772,0,0,0,34.36,0H27.767a1.737,1.737,0,0,0-1.735,1.735,3.438,3.438,0,0,0,.482,1.736H21.693a2.595,2.595,0,0,0-2.412,3.572,2.568,2.568,0,0,0-1.6,3.738,12.973,12.973,0,0,0-3.8,9.177,14.87,14.87,0,0,0,6.942,12.629v2.122H19.44a16.775,16.775,0,0,0-9.185,2.758,1.734,1.734,0,0,0-1.578-1.022H1.735A1.737,1.737,0,0,0,0,38.18V50.328a1.737,1.737,0,0,0,1.735,1.735H8.677a1.734,1.734,0,0,0,1.578-1.022A16.779,16.779,0,0,0,19.44,53.8h9.2a2.606,2.606,0,0,0,2.6-2.6,2.574,2.574,0,0,0-.16-.868h1.027a2.595,2.595,0,0,0,2.412-3.572,2.589,2.589,0,0,0,0-5.005,2.58,2.58,0,0,0-1.545-3.412V32.586a14.871,14.871,0,0,0,6.942-12.629,12.964,12.964,0,0,0-.138-1.791,16.617,16.617,0,0,0,3.768-1.832,1.734,1.734,0,0,0,1.577,1.02h6.942A1.737,1.737,0,0,0,53.8,15.619V3.471a1.737,1.737,0,0,0-1.735-1.735ZM21.693,5.206H32.247a1.7,1.7,0,0,1,1.337.66,6.764,6.764,0,0,0-1.632,2.1A12.93,12.93,0,0,0,26.9,6.942H21.693a.868.868,0,1,1,0-1.735ZM19.958,8.677h.476a13.066,13.066,0,0,0-1.339.889c0-.007,0-.013,0-.021a.869.869,0,0,1,.868-.868Zm2.6,24.3h8.677v1.735H22.561ZM24.3,19.958a10.622,10.622,0,0,1,.33-2.6h4.546a10.441,10.441,0,0,1,0,5.206H24.626A10.622,10.622,0,0,1,24.3,19.958Zm2.6-7.113.823,1.236a10.719,10.719,0,0,1,.846,1.538H25.23a10.589,10.589,0,0,1,.846-1.538ZM28.569,24.3a10.589,10.589,0,0,1-.846,1.538L26.9,27.071l-.823-1.236A10.719,10.719,0,0,1,25.23,24.3Zm.09,3.264.508-.762a12.338,12.338,0,0,0,1.281-2.5h2.941A7.832,7.832,0,0,1,28.659,27.56Zm6.05-7.6a7.754,7.754,0,0,1-.456,2.6H30.959a12.266,12.266,0,0,0,0-5.206h3.295A7.754,7.754,0,0,1,34.709,19.958Zm-4.261-4.339a12.338,12.338,0,0,0-1.281-2.5l-.508-.762a7.828,7.828,0,0,1,4.729,3.264Zm-5.816-2.5a12.338,12.338,0,0,0-1.281,2.5H20.411a7.831,7.831,0,0,1,4.729-3.264Zm-5.542,6.84a7.754,7.754,0,0,1,.456-2.6H22.84a12.266,12.266,0,0,0,0,5.206H19.546a7.754,7.754,0,0,1-.456-2.6ZM23.352,24.3a12.338,12.338,0,0,0,1.281,2.5l.508.762A7.828,7.828,0,0,1,20.412,24.3ZM26.9,29.5c.293,0,.581-.018.868-.044v1.78H26.032v-1.78C26.318,29.485,26.606,29.5,26.9,29.5Zm.385,8.678a3.438,3.438,0,0,0,.482-1.736h3.471V38.18ZM1.735,50.328V38.18H8.677l0,12.148Zm32.106-5.206H20.826v1.735H32.106a.868.868,0,0,1,0,1.735H20.826v1.735h7.81a.868.868,0,1,1,0,1.735h-9.2a15.016,15.016,0,0,1-9.027-3.043V39.488a15.016,15.016,0,0,1,9.027-3.043h6.592A1.736,1.736,0,0,1,24.3,38.18H20.826v1.735H32.106a.868.868,0,0,1,0,1.735H20.826v1.735H33.842a.868.868,0,0,1,0,1.735ZM31.965,31.171l-.108.068H29.5V29.133a9.545,9.545,0,1,0-5.206,0v2.105H21.942l-.108-.068a13.148,13.148,0,0,1-6.215-11.213,11.281,11.281,0,1,1,22.561,0A13.148,13.148,0,0,1,31.965,31.171ZM33.494,8.755A5.021,5.021,0,0,1,34.58,7.284a4.5,4.5,0,0,0,3.264,1.394h.336V6.942h-.336a2.786,2.786,0,0,1-2.507-1.557,3.432,3.432,0,0,0-3.091-1.914H29.5a1.736,1.736,0,0,1-1.732-1.735H34.36a15.017,15.017,0,0,1,9.027,3.042v9.531a14.884,14.884,0,0,1-3.964,2.146,13.052,13.052,0,0,0-5.928-7.7Zm11.628,6.864V3.471h6.942V15.619Z"/>
        <path id="Trazado_990333" data-name="Trazado 990333" d="M3.629,31.65H5.364V10.825H4.328L7.1,6.388l2.772,4.437H8.835V19.5h1.735V12.56H13L7.1,3.113,1.2,12.56H3.629Z" transform="translate(-0.158 -0.412)"/>
        <path id="Trazado_990334" data-name="Trazado 990334" d="M10,24h1.735V37.884H10Z" transform="translate(-1.323 -3.174)"/>
        <path id="Trazado_990335" data-name="Trazado 990335" d="M56.571,22H54.835V46.3h1.037L53.1,50.733,50.328,46.3h1.037V34.148H49.629V44.561H47.195l5.9,9.447L59,44.561H56.571Z" transform="translate(-6.242 -2.91)"/>
        <path id="Trazado_990336" data-name="Trazado 990336" d="M50,26h1.735v6.942H50Z" transform="translate(-6.613 -3.439)"/>
      </g>
    </g>
  </g>
</svg>
