<svg xmlns="http://www.w3.org/2000/svg" xmlns:xlink="http://www.w3.org/1999/xlink" width="108" height="108" viewBox="0 0 108 108">
  <defs>
    <filter id="Trazado_982547" x="0" y="0" width="108" height="108" filterUnits="userSpaceOnUse">
      <feOffset dy="3" input="SourceAlpha"/>
      <feGaussianBlur stdDeviation="3" result="blur"/>
      <feFlood flood-opacity="0.161"/>
      <feComposite operator="in" in2="blur"/>
      <feComposite in="SourceGraphic"/>
    </filter>
  </defs>
  <g id="Grupo_1155305" data-name="Grupo 1155305" transform="translate(-194 -2433)">
    <g id="Grupo_1154051" data-name="Grupo 1154051" transform="translate(203 2439)">
      <g id="Grupo_1153134" data-name="Grupo 1153134">
        <g id="Grupo_1149598" data-name="Grupo 1149598">
          <g id="Grupo_1148770" data-name="Grupo 1148770">
            <g id="Grupo_1146954" data-name="Grupo 1146954">
              <g transform="matrix(1, 0, 0, 1, -9, -6)" filter="url(#Trazado_982547)">
                <g id="Trazado_982547-2" data-name="Trazado 982547" transform="translate(9 6)" fill="#f5f5f5">
                  <path d="M 45 88.5 C 39.12687683105469 88.5 33.43022537231445 87.35007476806641 28.06830024719238 85.08217620849609 C 22.88852500915527 82.89131164550781 18.23629951477051 79.75458526611328 14.2408504486084 75.75914764404297 C 10.24541282653809 71.76370239257812 7.108687400817871 67.11147308349609 4.917825222015381 61.93170166015625 C 2.649924993515015 56.56977462768555 1.5 50.87312316894531 1.5 45 C 1.5 39.12687683105469 2.649924993515015 33.43022537231445 4.917825222015381 28.06830024719238 C 7.108687400817871 22.88852500915527 10.24541282653809 18.23629951477051 14.2408504486084 14.2408504486084 C 18.23629951477051 10.24541282653809 22.88852500915527 7.108687400817871 28.06830024719238 4.917825222015381 C 33.43022537231445 2.649924993515015 39.12687683105469 1.5 45 1.5 C 50.87312316894531 1.5 56.56977462768555 2.649924993515015 61.93170166015625 4.917825222015381 C 67.11147308349609 7.108687400817871 71.76370239257812 10.24541282653809 75.75914764404297 14.2408504486084 C 79.75458526611328 18.23629951477051 82.89131164550781 22.88852500915527 85.08217620849609 28.06830024719238 C 87.35007476806641 33.43022537231445 88.5 39.12687683105469 88.5 45 C 88.5 50.87312316894531 87.35007476806641 56.56977462768555 85.08217620849609 61.93170166015625 C 82.89131164550781 67.11147308349609 79.75458526611328 71.76370239257812 75.75914764404297 75.75914764404297 C 71.76370239257812 79.75458526611328 67.11147308349609 82.89131164550781 61.93170166015625 85.08217620849609 C 56.56977462768555 87.35007476806641 50.87312316894531 88.5 45 88.5 Z" stroke="none"/>
                  <path d="M 45 3 C 39.32871246337891 3 33.82865524291992 4.110054016113281 28.65262985229492 6.299339294433594 C 23.65165710449219 8.414573669433594 19.15968322753906 11.44334411621094 15.301513671875 15.301513671875 C 11.44334411621094 19.15968322753906 8.414573669433594 23.65165710449219 6.299339294433594 28.65262985229492 C 4.110054016113281 33.82865524291992 3 39.32871246337891 3 45 C 3 50.67128753662109 4.110054016113281 56.17134475708008 6.299339294433594 61.34737396240234 C 8.414573669433594 66.34834289550781 11.44334411621094 70.84031677246094 15.301513671875 74.698486328125 C 19.15968322753906 78.55665588378906 23.65165710449219 81.58542633056641 28.65262985229492 83.70066070556641 C 33.82865524291992 85.88994598388672 39.32871246337891 87 45 87 C 50.67128753662109 87 56.17134475708008 85.88994598388672 61.34737396240234 83.70066070556641 C 66.34834289550781 81.58542633056641 70.84031677246094 78.55665588378906 74.698486328125 74.698486328125 C 78.55665588378906 70.84031677246094 81.58542633056641 66.34834289550781 83.70066070556641 61.34737396240234 C 85.88994598388672 56.17134475708008 87 50.67128753662109 87 45 C 87 39.32871246337891 85.88994598388672 33.82865524291992 83.70066070556641 28.65262985229492 C 81.58542633056641 23.65165710449219 78.55665588378906 19.15968322753906 74.698486328125 15.301513671875 C 70.84031677246094 11.44334411621094 66.34834289550781 8.414573669433594 61.34737396240234 6.299339294433594 C 56.17134475708008 4.110054016113281 50.67128753662109 3 45 3 M 45 0 C 69.85281372070312 0 90 20.14718627929688 90 45 C 90 69.85281372070312 69.85281372070312 90 45 90 C 20.14718627929688 90 0 69.85281372070312 0 45 C 0 20.14718627929688 20.14718627929688 0 45 0 Z" stroke="none" fill="#01899b"/>
                </g>
              </g>
            </g>
          </g>
        </g>
      </g>
    </g>
    <g id="economia-digital" transform="translate(220 2456)">
      <g id="Grupo_1155303" data-name="Grupo 1155303" transform="translate(0.823 0.823)">
        <g id="Grupo_1155302" data-name="Grupo 1155302">
          <g id="Grupo_1155292" data-name="Grupo 1155292" transform="translate(14.226 7.51)">
            <path id="Trazado_988818" data-name="Trazado 988818" d="M137.2,101.035l15.424-15.424a1,1,0,0,1,1.42,0l2.134,2.134a1,1,0,0,0,1.42,0L169.08,76.26a1,1,0,0,1,1.714.71v35.481H142.43Z" transform="translate(-137.197 -75.964)" fill="#d6abec"/>
            <g id="Grupo_1155291" data-name="Grupo 1155291" transform="translate(29.21)">
              <path id="Trazado_988819" data-name="Trazado 988819" d="M406.175,76.26,403.5,78.933v33.518h4.387V76.97A1,1,0,0,0,406.175,76.26Z" transform="translate(-403.502 -75.964)" fill="#ca97e7"/>
            </g>
          </g>
          <g id="Grupo_1155296" data-name="Grupo 1155296" transform="translate(0 25.868)">
            <g id="Grupo_1155295" data-name="Grupo 1155295">
              <g id="Grupo_1155294" data-name="Grupo 1155294">
                <path id="Trazado_988820" data-name="Trazado 988820" d="M24.224,271.1l.57-2.682a11.094,11.094,0,0,0,2.451-1l2.325,1.509a1.107,1.107,0,0,0,1.386-.146l1.927-1.927a1.107,1.107,0,0,0,.146-1.386l-1.494-2.3a11.1,11.1,0,0,0,1.026-2.442l2.71-.577a1.107,1.107,0,0,0,.877-1.083v-2.725a1.107,1.107,0,0,0-.877-1.083l-2.682-.57a11.094,11.094,0,0,0-1-2.451l1.509-2.325a1.107,1.107,0,0,0-.146-1.386L31.02,246.6a1.107,1.107,0,0,0-1.386-.146l-2.3,1.494a11.1,11.1,0,0,0-2.442-1.026l-.577-2.71a1.107,1.107,0,0,0-1.083-.877H20.506a1.107,1.107,0,0,0-1.083.877l-.57,2.682a11.1,11.1,0,0,0-2.451,1l-2.325-1.509a1.107,1.107,0,0,0-1.386.146l-1.927,1.927a1.107,1.107,0,0,0-.146,1.386l1.494,2.3a11.1,11.1,0,0,0-1.026,2.442l-2.71.577a1.107,1.107,0,0,0-.877,1.083v2.725a1.107,1.107,0,0,0,.877,1.083l2.682.57a11.093,11.093,0,0,0,1,2.451L10.554,265.4a1.107,1.107,0,0,0,.146,1.386l1.927,1.927a1.107,1.107,0,0,0,1.386.146l2.3-1.494a11.1,11.1,0,0,0,2.442,1.026l.577,2.71a1.107,1.107,0,0,0,1.083.877h2.725A1.107,1.107,0,0,0,24.224,271.1Zm-2.4-6.683a6.763,6.763,0,1,1,6.762-6.764A6.763,6.763,0,0,1,21.825,264.419Z" transform="translate(-7.5 -243.333)" fill="#9ad4fe"/>
                <g id="Grupo_1155293" data-name="Grupo 1155293" transform="translate(6.507 6.507)">
                  <ellipse id="Elipse_11824" data-name="Elipse 11824" cx="7.817" cy="7.816" rx="7.817" ry="7.816" transform="translate(0 0)" fill="#ffcd55"/>
                  <path id="Trazado_988821" data-name="Trazado 988821" d="M120.279,302.66a7.818,7.818,0,0,0-2.194.314,7.816,7.816,0,0,1,0,15,7.816,7.816,0,1,0,2.194-15.318Z" transform="translate(-112.462 -302.66)" fill="#ffbe46"/>
                  <ellipse id="Elipse_11825" data-name="Elipse 11825" cx="4.267" cy="4.267" rx="4.267" ry="4.267" transform="translate(3.549 3.549)" fill="#fff4ca"/>
                </g>
              </g>
            </g>
          </g>
          <g id="Grupo_1155299" data-name="Grupo 1155299" transform="translate(0)">
            <g id="Grupo_1155298" data-name="Grupo 1155298">
              <path id="Trazado_988822" data-name="Trazado 988822" d="M73.5,90.5a1.848,1.848,0,1,1-1.6.924A1.848,1.848,0,0,1,73.5,90.5Z" transform="translate(-64.613 -81.396)" fill="#51d29e"/>
              <g id="Grupo_1155297" data-name="Grupo 1155297">
                <path id="Trazado_988823" data-name="Trazado 988823" d="M123.085,7.5a1.848,1.848,0,1,1-1.6.924A1.848,1.848,0,0,1,123.085,7.5Z" transform="translate(-108.761 -7.5)" fill="#ffcd55"/>
                <path id="Trazado_988824" data-name="Trazado 988824" d="M9.349,189.652a1.848,1.848,0,1,1-1.6.924A1.848,1.848,0,0,1,9.349,189.652Z" transform="translate(-7.501 -169.672)" fill="#ffcd55"/>
              </g>
            </g>
          </g>
          <g id="Grupo_1155301" data-name="Grupo 1155301" transform="translate(23.867 42.031)">
            <path id="Trazado_988825" data-name="Trazado 988825" d="M243.652,442.6h9.237l4.157,1.4,4.157-1.4h9.237a.965.965,0,0,1,.965.965v3.763a.965.965,0,0,1-.965.965H261.2l-4.157-1.213-4.157,1.213h-9.237a.965.965,0,0,1-.965-.965v-3.763A.965.965,0,0,1,243.652,442.6Z" transform="translate(-240.757 -436.904)" fill="#51d29e"/>
            <path id="Trazado_988826" data-name="Trazado 988826" d="M460.092,442.6H455.7a.965.965,0,0,1,.965.965v3.763a.965.965,0,0,1-.965.965h4.388a.965.965,0,0,0,.965-.965v-3.763A.965.965,0,0,0,460.092,442.6Z" transform="translate(-430.409 -436.904)" fill="#00ca8d"/>
            <path id="Trazado_988827" data-name="Trazado 988827" d="M0,0H8.314V5.693H0Z" transform="translate(20.446 11.386) rotate(180)" fill="#f6f3f5"/>
            <g id="Grupo_1155300" data-name="Grupo 1155300" transform="translate(0 0)">
              <path id="Trazado_988828" data-name="Trazado 988828" d="M226.058,390.7h9.237l4.157,1.715,4.157-1.715h9.237a.965.965,0,0,1,.965.965v3.763a.965.965,0,0,1-.965.965h-9.237l-4.157-1.491-4.157,1.491h-9.237a.965.965,0,0,1-.965-.965V391.66A.965.965,0,0,1,226.058,390.7Z" transform="translate(-225.093 -390.695)" fill="#51d29e"/>
              <path id="Trazado_988829" data-name="Trazado 988829" d="M442.5,390.7H438.11a.965.965,0,0,1,.965.965v3.763a.965.965,0,0,1-.965.965H442.5a.965.965,0,0,0,.965-.965V391.66A.965.965,0,0,0,442.5,390.7Z" transform="translate(-414.745 -390.695)" fill="#00ca8d"/>
              <path id="Trazado_988830" data-name="Trazado 988830" d="M0,0H8.314V5.693H0Z" transform="translate(18.516 5.693) rotate(180)" fill="#e8e5e8"/>
            </g>
          </g>
        </g>
      </g>
      <g id="Grupo_1155304" data-name="Grupo 1155304" transform="translate(0 0)">
        <path id="Trazado_988831" data-name="Trazado 988831" d="M157.711,24.848a.823.823,0,0,0,1.163,0L171.252,12.47a.182.182,0,0,1,.257,0l2.134,2.134a1.829,1.829,0,0,0,2.584,0l11.795-11.8v.564a.823.823,0,1,0,1.645,0V.823A.833.833,0,0,0,188.844,0h-2.55a.823.823,0,0,0,0,1.645h.564L175.063,13.44a.182.182,0,0,1-.257,0l-2.134-2.134a1.843,1.843,0,0,0-2.584,0L157.711,23.684a.823.823,0,0,0,0,1.163Z" transform="translate(-140.198 0)"/>
        <path id="Trazado_988832" data-name="Trazado 988832" d="M67.959,295.16a8.637,8.637,0,0,0-7.235,13.358.823.823,0,1,0,1.377-.9,7,7,0,1,1,2.045,2.042.823.823,0,0,0-.9,1.378,8.638,8.638,0,1,0,4.711-15.878Z" transform="translate(-52.813 -262.785)"/>
        <path id="Trazado_988833" data-name="Trazado 988833" d="M96.769,337.7a5.09,5.09,0,1,0-5.09-5.09A5.1,5.1,0,0,0,96.769,337.7Zm0-8.534a3.444,3.444,0,1,1-3.445,3.444A3.448,3.448,0,0,1,96.769,329.161Z" transform="translate(-81.623 -291.592)"/>
        <path id="Trazado_988834" data-name="Trazado 988834" d="M2.681,25.321a2.726,2.726,0,0,0,2.539-1.848H8.895v2.852a.823.823,0,1,0,1.645,0V18.889h3.52a1.922,1.922,0,0,0,1.92-1.92V5.21a2.673,2.673,0,1,0-1.645,0V16.97a.275.275,0,0,1-.274.274H10.54v-2.93a2.673,2.673,0,1,0-1.645,0v7.514H5.221A2.725,2.725,0,0,0,2.681,19.98a2.671,2.671,0,0,0,0,5.341ZM14.269,2.158a1.025,1.025,0,1,1,0,1.025,1.028,1.028,0,0,1,0-1.025Zm-5.439,9.1a1.025,1.025,0,1,1,0,1.025,1.028,1.028,0,0,1,0-1.025ZM1.794,22.138a1.025,1.025,0,1,1,0,1.025,1.028,1.028,0,0,1,0-1.025Z" transform="translate(-0.011 0)"/>
        <path id="Trazado_988835" data-name="Trazado 988835" d="M54.372,108.853h-.15c0-.047.007-.094.007-.142v-3.763a1.79,1.79,0,0,0-1.788-1.788H49.469V80.1a.823.823,0,1,0-1.645,0V103.16H30.292v-2.335a1.939,1.939,0,0,0-1.529-1.887l-2.2-.469a11.929,11.929,0,0,0-.7-1.706l1.246-1.92a1.939,1.939,0,0,0-.255-2.415L24.924,90.5a1.94,1.94,0,0,0-2.416-.254l-1.89,1.228q-.453-.233-.924-.425L31.054,79.69a.182.182,0,0,1,.257,0l2.134,2.134a1.829,1.829,0,0,0,2.584,0L47.513,70.339q.241-.143.31.128v6.347a.823.823,0,1,0,1.645,0V70.467a1.848,1.848,0,0,0-3.119-1.292L34.865,80.66a.182.182,0,0,1-.257,0l-2.134-2.134a1.829,1.829,0,0,0-2.584,0L18.7,89.721l-.255-1.2A1.939,1.939,0,0,0,16.554,87H13.828a1.939,1.939,0,0,0-1.887,1.529l-.469,2.2a11.944,11.944,0,0,0-1.706.7l-1.92-1.246a1.939,1.939,0,0,0-2.415.255L3.5,92.365a1.94,1.94,0,0,0-.254,2.415l1.228,1.89a11.928,11.928,0,0,0-.714,1.7l-2.237.477A1.939,1.939,0,0,0,0,100.735v2.725a1.939,1.939,0,0,0,1.529,1.887l2.2.469a11.929,11.929,0,0,0,.7,1.706l-1.246,1.92a1.939,1.939,0,0,0,.255,2.415l1.927,1.927a1.939,1.939,0,0,0,2.415.254l1.89-1.228a11.934,11.934,0,0,0,1.7.714l.477,2.237a1.939,1.939,0,0,0,1.887,1.528h2.725a1.939,1.939,0,0,0,1.887-1.529l.469-2.2a11.936,11.936,0,0,0,1.706-.7l1.92,1.246a1.939,1.939,0,0,0,2.415-.255l.936-.937V114.4a1.79,1.79,0,0,0,1.788,1.788H54.372A1.79,1.79,0,0,0,56.16,114.4v-3.763a1.79,1.79,0,0,0-1.788-1.787Zm-1.788-3.905v3.763a.142.142,0,0,1-.142.142H44.028v-4.048h8.414A.142.142,0,0,1,52.584,104.948Zm-10.2-.142v4.048H35.714v-4.048Zm-16.728,4.048a.142.142,0,0,1-.142-.142v-3.763a.142.142,0,0,1,.142-.142h8.414v4.048Zm-.031,1.9L23.7,112.684a.286.286,0,0,1-.356.038l-2.325-1.509a.823.823,0,0,0-.848-.029,10.288,10.288,0,0,1-2.27.929.823.823,0,0,0-.586.622l-.57,2.682a.286.286,0,0,1-.278.225H13.738a.286.286,0,0,1-.278-.225l-.577-2.71a.823.823,0,0,0-.579-.62,10.289,10.289,0,0,1-2.261-.95.823.823,0,0,0-.855.025l-2.3,1.494a.286.286,0,0,1-.356-.037L4.6,110.693a.286.286,0,0,1-.038-.356l1.509-2.325a.822.822,0,0,0,.029-.848,10.284,10.284,0,0,1-.929-2.27.823.823,0,0,0-.622-.586l-2.682-.57a.286.286,0,0,1-.225-.278v-2.725a.286.286,0,0,1,.225-.278l2.71-.577A.823.823,0,0,0,5.2,99.3a10.289,10.289,0,0,1,.95-2.261.823.823,0,0,0-.025-.855l-1.494-2.3a.286.286,0,0,1,.037-.356L6.6,91.6a.286.286,0,0,1,.356-.038l2.325,1.509a.823.823,0,0,0,.848.029,10.279,10.279,0,0,1,2.269-.929.823.823,0,0,0,.586-.622l.57-2.682a.286.286,0,0,1,.278-.225h2.725a.286.286,0,0,1,.278.225l.577,2.71a.823.823,0,0,0,.579.62,10.289,10.289,0,0,1,2.261.95.823.823,0,0,0,.855-.025l2.3-1.494a.286.286,0,0,1,.356.037l1.927,1.927a.286.286,0,0,1,.038.356l-1.509,2.325a.823.823,0,0,0-.029.848,10.284,10.284,0,0,1,.929,2.27.823.823,0,0,0,.622.586l2.682.57a.286.286,0,0,1,.225.278v2.335H25.655a1.79,1.79,0,0,0-1.788,1.788v3.763a1.79,1.79,0,0,0,1.788,1.788H25.7a.286.286,0,0,1-.077.259Zm1.819,3.647v-3.763a.142.142,0,0,1,.142-.142H36v4.048H27.584A.142.142,0,0,1,27.442,114.4Zm10.2.142V110.5h6.669v4.048Zm16.87-.142a.142.142,0,0,1-.142.142H45.958V110.5h8.414a.142.142,0,0,1,.142.142Z" transform="translate(0 -61.129)"/>
      </g>
    </g>
  </g>
</svg>
